<svg width="64" height="64" viewBox="0 0 64 64" fill="none" xmlns="http://www.w3.org/2000/svg">
<rect width="64" height="64" rx="32" fill="#502387" fill-opacity="0.1"/>
<path d="M31.2499 35.4326L40.6825 29.375L31.2499 23.3174V35.4326ZM26.0865 40.625C25.3288 40.625 24.6874 40.3625 24.1624 39.8375C23.6374 39.3125 23.3749 38.6711 23.3749 37.9134V20.8366C23.3749 20.0789 23.6374 19.4375 24.1624 18.9126C24.6874 18.3876 25.3288 18.1251 26.0865 18.1251H43.1633C43.921 18.1251 44.5623 18.3876 45.0873 18.9126C45.6123 19.4375 45.8748 20.0789 45.8748 20.8366V37.9134C45.8748 38.6711 45.6123 39.3125 45.0873 39.8375C44.5623 40.3625 43.921 40.625 43.1633 40.625H26.0865ZM26.0865 38.375H43.1633C43.2787 38.375 43.3845 38.3269 43.4806 38.2308C43.5768 38.1346 43.6249 38.0288 43.6249 37.9134V20.8366C43.6249 20.7212 43.5768 20.6154 43.4806 20.5192C43.3845 20.4231 43.2787 20.375 43.1633 20.375H26.0865C25.9711 20.375 25.8653 20.4231 25.7691 20.5192C25.673 20.6154 25.6249 20.7212 25.6249 20.8366V37.9134C25.6249 38.0288 25.673 38.1346 25.7691 38.2308C25.8653 38.3269 25.9711 38.375 26.0865 38.375ZM20.8365 45.8749C20.0788 45.8749 19.4375 45.6124 18.9125 45.0874C18.3875 44.5624 18.125 43.9211 18.125 43.1634V23.8366H20.3749V43.1634C20.3749 43.2788 20.423 43.3845 20.5192 43.4807C20.6153 43.5769 20.7211 43.625 20.8365 43.625H40.1633V45.8749H20.8365ZM25.6249 20.375C25.6249 20.375 25.6249 20.4183 25.6249 20.5048C25.6249 20.5914 25.6249 20.702 25.6249 20.8366V37.9134C25.6249 38.0481 25.6249 38.1586 25.6249 38.2452C25.6249 38.3317 25.6249 38.375 25.6249 38.375C25.6249 38.375 25.6249 38.3317 25.6249 38.2452C25.6249 38.1586 25.6249 38.0481 25.6249 37.9134V20.8366C25.6249 20.702 25.6249 20.5914 25.6249 20.5048C25.6249 20.4183 25.6249 20.375 25.6249 20.375Z" fill="#502387"/>
</svg>
