<svg width="55" height="39" viewBox="0 0 55 39" fill="none" xmlns="http://www.w3.org/2000/svg">
<path d="M35.235 21V19C35.235 17.9391 34.8136 16.9217 34.0634 16.1716C33.3133 15.4214 32.2959 15 31.235 15H23.235C22.1741 15 21.1567 15.4214 20.4066 16.1716C19.6564 16.9217 19.235 17.9391 19.235 19V21" stroke="#C59AFF" stroke-width="2" stroke-linecap="square" stroke-linejoin="round"/>
<path d="M27.235 11C29.4441 11 31.235 9.20914 31.235 7C31.235 4.79086 29.4441 3 27.235 3C25.0258 3 23.235 4.79086 23.235 7C23.235 9.20914 25.0258 11 27.235 11Z" stroke="#C59AFF" stroke-width="2" stroke-linecap="round" stroke-linejoin="round"/>
<path d="M3.75968 27.7273H5.65599L7.65883 32.6136H7.74406L9.7469 27.7273H11.6432V35H10.1517V30.2663H10.0914L8.20925 34.9645H7.19363L5.31153 30.2486H5.25116V35H3.75968V27.7273ZM12.9839 27.7273H14.7062L16.3646 30.8594H16.4356L18.094 27.7273H19.8163L17.1636 32.429V35H15.6366V32.429L12.9839 27.7273ZM23.9706 35V27.7273H26.8399C27.3915 27.7273 27.8615 27.8326 28.2497 28.0433C28.638 28.2517 28.9339 28.5417 29.1375 28.9134C29.3435 29.2827 29.4465 29.7088 29.4465 30.1918C29.4465 30.6747 29.3423 31.1009 29.134 31.4702C28.9256 31.8395 28.6238 32.1271 28.2284 32.3331C27.8354 32.5391 27.3596 32.642 26.8009 32.642H24.972V31.4098H26.5523C26.8482 31.4098 27.0921 31.3589 27.2838 31.2571C27.478 31.1529 27.6224 31.0097 27.7171 30.8274C27.8141 30.6428 27.8627 30.4309 27.8627 30.1918C27.8627 29.9503 27.8141 29.7396 27.7171 29.5597C27.6224 29.3774 27.478 29.2365 27.2838 29.1371C27.0897 29.0353 26.8435 28.9844 26.5452 28.9844H25.5083V35H23.9706ZM31.3589 35H29.7112L32.2219 27.7273H34.2034L36.7105 35H35.0628L33.241 29.3892H33.1842L31.3589 35ZM31.256 32.1413H35.148V33.3416H31.256V32.1413ZM42.5665 30.0781C42.5168 29.9053 42.4469 29.7526 42.357 29.62C42.267 29.4851 42.1569 29.3714 42.0267 29.2791C41.8989 29.1844 41.7521 29.1122 41.5864 29.0625C41.423 29.0128 41.2419 28.9879 41.0431 28.9879C40.6714 28.9879 40.3447 29.0803 40.0629 29.2649C39.7836 29.4496 39.5658 29.7183 39.4095 30.071C39.2533 30.4214 39.1752 30.8499 39.1752 31.3565C39.1752 31.8632 39.2521 32.294 39.406 32.6491C39.5599 33.0043 39.7777 33.2753 40.0594 33.4624C40.3411 33.647 40.6737 33.7393 41.0573 33.7393C41.4053 33.7393 41.7024 33.6778 41.9486 33.5547C42.1972 33.4292 42.3866 33.2528 42.5168 33.0256C42.6494 32.7983 42.7156 32.5296 42.7156 32.2195L43.0281 32.2656H41.1531V31.108H44.1965V32.0241C44.1965 32.6634 44.0615 33.2126 43.7916 33.6719C43.5218 34.1288 43.1501 34.4815 42.6766 34.7301C42.2031 34.9763 41.661 35.0994 41.0502 35.0994C40.3683 35.0994 39.7694 34.9491 39.2533 34.6484C38.7372 34.3454 38.3347 33.9157 38.0459 33.3594C37.7594 32.8007 37.6162 32.1378 37.6162 31.3707C37.6162 30.7812 37.7014 30.2557 37.8719 29.794C38.0447 29.33 38.2862 28.937 38.5963 28.6151C38.9065 28.2931 39.2675 28.0481 39.6794 27.88C40.0914 27.7119 40.5376 27.6278 41.0182 27.6278C41.4301 27.6278 41.8137 27.6882 42.1688 27.8089C42.5239 27.9273 42.8388 28.0954 43.1134 28.3132C43.3904 28.531 43.6165 28.7902 43.7916 29.0909C43.9668 29.3892 44.0793 29.7183 44.129 30.0781H42.5665ZM45.8515 35V27.7273H50.752V28.995H47.3891V30.728H50.4999V31.9957H47.3891V33.7322H50.7663V35H45.8515Z" fill="#C59AFF"/>
</svg>
