<svg width="37" height="24" viewBox="0 0 37 24" fill="none" xmlns="http://www.w3.org/2000/svg">
<path d="M1.17938 18V6.35938H3.53686L7.56533 12.7697C7.73157 13.0356 7.90887 13.3364 8.0972 13.6722C8.28553 14.0081 8.48069 14.3834 8.68267 14.7983C8.88465 15.2132 9.08553 15.6734 9.28532 16.1788H9.05189C9.01251 15.7402 8.97913 15.2903 8.95173 14.8289C8.92433 14.3676 8.90334 13.9299 8.88876 13.5158C8.87418 13.1018 8.86689 12.7515 8.86689 12.465V6.35938H10.9869V18H8.61939L4.98842 12.23C4.76009 11.8589 4.54358 11.4938 4.3389 11.1345C4.13421 10.7752 3.91483 10.3687 3.68077 9.91497C3.44671 9.46122 3.16353 8.91372 2.83124 8.27247H3.12436C3.15603 8.83935 3.18556 9.37695 3.21295 9.88529C3.24035 10.3936 3.26243 10.8479 3.2792 11.2481C3.29597 11.6483 3.30436 11.9723 3.30436 12.22V18H1.17938ZM17.0922 18.1763C16.2166 18.1763 15.4615 17.992 14.827 17.6236C14.1926 17.2552 13.7048 16.735 13.3638 16.0631C13.0227 15.3912 12.8522 14.599 12.8522 13.6863C12.8522 12.7885 13.0207 11.9999 13.3577 11.3205C13.6946 10.641 14.1714 10.1104 14.7878 9.72875C15.4043 9.34708 16.128 9.15625 16.9591 9.15625C17.4938 9.15625 18.0015 9.24245 18.482 9.41484C18.9625 9.58724 19.3887 9.85245 19.7606 10.2105C20.1325 10.5685 20.425 11.0252 20.6381 11.5806C20.8512 12.136 20.9578 12.7977 20.9578 13.5656V14.1994H13.8109V12.8206H19.9441L18.9953 13.23C18.9953 12.7358 18.9191 12.3027 18.7666 11.9305C18.6141 11.5583 18.3879 11.2684 18.0881 11.0608C17.7883 10.8532 17.4157 10.7494 16.9703 10.7494C16.5249 10.7494 16.1456 10.8548 15.8325 11.0658C15.5194 11.2767 15.2807 11.5583 15.1165 11.9105C14.9524 12.2627 14.8703 12.6542 14.8703 13.085V14.04C14.8703 14.5921 14.964 15.0578 15.1514 15.437C15.3388 15.8163 15.602 16.1021 15.9409 16.2945C16.2799 16.4869 16.6728 16.5831 17.1197 16.5831C17.4166 16.5831 17.6864 16.5407 17.9292 16.4558C18.172 16.3709 18.3809 16.2441 18.5559 16.0755C18.7309 15.9068 18.8647 15.6984 18.9572 15.4503L20.8228 15.8366C20.6836 16.3041 20.4442 16.7134 20.1044 17.0645C19.7646 17.4157 19.3405 17.6888 18.832 17.8838C18.3236 18.0788 17.7436 18.1763 17.0922 18.1763ZM21.6725 18L25.0728 12.7291L25.0678 14.3022L21.8438 9.26562H24.0778L24.9669 10.75C25.2275 11.195 25.4593 11.6282 25.6622 12.0497C25.8651 12.4711 26.0712 12.8786 26.2806 13.2722H25.4422C25.6605 12.8805 25.8663 12.4735 26.0597 12.0511C26.253 11.6287 26.4845 11.195 26.7541 10.75L27.6722 9.26562H29.8637L26.5959 14.3394V12.7941L29.9931 18H27.7725L26.6994 16.25C26.4365 15.8098 26.2029 15.3812 25.9986 14.9644C25.7943 14.5475 25.5863 14.1473 25.3747 13.7638H26.2181C26.0121 14.1473 25.8142 14.5475 25.6244 14.9644C25.4346 15.3812 25.2084 15.8098 24.9459 16.25L23.8712 18H21.6725ZM35.7584 9.26562V10.8569H30.7984V9.26562H35.7584ZM32.0378 7.1875H34.0684V15.5403C34.0684 15.8559 34.1361 16.0877 34.2715 16.2355C34.407 16.3833 34.6305 16.4572 34.9422 16.4572C35.0326 16.4572 35.1543 16.4463 35.3073 16.4245C35.4603 16.4028 35.5838 16.3815 35.6778 16.3606L35.9978 17.9278C35.7751 17.9968 35.5474 18.0457 35.3147 18.0745C35.082 18.1034 34.8567 18.1178 34.6387 18.1178C33.8029 18.1178 33.1605 17.9097 32.7114 17.4934C32.2623 17.0772 32.0378 16.4842 32.0378 15.7144V7.1875Z" fill="#502387"/>
</svg>
