<svg width="382" height="78" viewBox="0 0 382 78" fill="none" xmlns="http://www.w3.org/2000/svg">
<rect x="12" y="2" width="358" height="56" rx="12" fill="#502387"/>
<g filter="url(#filter0_dd_73_82)">
<rect x="12" y="2" width="358" height="56" rx="12" fill="white" fill-opacity="0.01" shape-rendering="crispEdges"/>
</g>
<path d="M102.67 40C100.353 39.4167 98.4408 38.0875 96.9324 36.0125C95.4241 33.9375 94.6699 31.6333 94.6699 29.1V23L102.67 20L110.67 23V29.1C110.67 31.6333 109.916 33.9375 108.407 36.0125C106.899 38.0875 104.987 39.4167 102.67 40Z" fill="white"/>
<path d="M119.715 36V24.3594H124.256C125.14 24.3594 125.891 24.5157 126.511 24.8284C127.131 25.1411 127.604 25.5817 127.93 26.1501C128.256 26.7185 128.419 27.3842 128.419 28.1472C128.419 28.9159 128.254 29.5771 127.923 30.1308C127.593 30.6846 127.114 31.1091 126.486 31.4043C125.857 31.6996 125.096 31.8472 124.201 31.8472H121.125V29.9151H123.822C124.307 29.9151 124.707 29.8485 125.022 29.7152C125.337 29.5819 125.572 29.3844 125.727 29.1226C125.882 28.8608 125.959 28.5356 125.959 28.1472C125.959 27.754 125.882 27.4227 125.727 27.1532C125.572 26.8838 125.336 26.6787 125.02 26.5378C124.704 26.3969 124.303 26.3265 123.815 26.3265H122.102V36H119.715ZM126.191 36L123.362 30.703H125.945L128.838 36H126.191ZM133.924 36.1706C133.032 36.1706 132.264 35.988 131.618 35.6229C130.972 35.2577 130.476 34.7392 130.13 34.0673C129.784 33.3955 129.611 32.599 129.611 31.6778C129.611 30.7792 129.783 29.9908 130.127 29.3127C130.471 28.6347 130.957 28.1057 131.586 27.7259C132.216 27.3461 132.955 27.1562 133.806 27.1562C134.377 27.1562 134.91 27.2471 135.405 27.4289C135.901 27.6107 136.335 27.8848 136.71 28.2513C137.084 28.6177 137.376 29.0782 137.587 29.6327C137.797 30.1871 137.902 30.8385 137.902 31.5867V32.2444H130.572V30.77H136.76L135.665 31.1653C135.665 30.7105 135.596 30.3153 135.457 29.9797C135.318 29.6441 135.112 29.3837 134.84 29.1986C134.567 29.0135 134.228 28.921 133.823 28.921C133.418 28.921 133.074 29.0147 132.792 29.2022C132.51 29.3897 132.295 29.6441 132.148 29.9653C132.001 30.2866 131.927 30.6518 131.927 31.0611V32.0991C131.927 32.6043 132.012 33.0287 132.181 33.3723C132.35 33.716 132.588 33.9741 132.894 34.1468C133.201 34.3195 133.556 34.4059 133.961 34.4059C134.235 34.4059 134.483 34.367 134.707 34.2891C134.93 34.2112 135.123 34.096 135.283 33.9433C135.444 33.7905 135.567 33.6023 135.651 33.3786L137.77 33.7705C137.629 34.253 137.384 34.6742 137.036 35.0343C136.688 35.3943 136.251 35.6737 135.727 35.8725C135.203 36.0712 134.602 36.1706 133.924 36.1706ZM143.41 36.1706C142.534 36.1706 141.776 35.9824 141.138 35.606C140.499 35.2296 140.007 34.7036 139.661 34.0279C139.315 33.3522 139.142 32.5665 139.142 31.6706C139.142 30.7676 139.315 29.9777 139.661 29.3008C140.007 28.6239 140.499 28.0973 141.138 27.7209C141.776 27.3445 142.534 27.1562 143.41 27.1562C143.93 27.1562 144.409 27.2236 144.845 27.3583C145.282 27.493 145.67 27.6857 146.008 27.9364C146.346 28.1871 146.624 28.4918 146.842 28.8503C147.061 29.2089 147.211 29.612 147.295 30.0597L145.116 30.4678C145.068 30.2411 144.995 30.0375 144.897 29.857C144.799 29.6765 144.679 29.5222 144.538 29.394C144.397 29.2658 144.234 29.1682 144.049 29.1011C143.864 29.0341 143.66 29.0005 143.435 29.0005C143.018 29.0005 142.668 29.1128 142.386 29.3373C142.103 29.5618 141.89 29.8737 141.746 30.2728C141.602 30.672 141.529 31.1351 141.529 31.6622C141.529 32.1817 141.602 32.6418 141.746 33.0426C141.89 33.4433 142.103 33.7575 142.386 33.985C142.668 34.2126 143.018 34.3264 143.435 34.3264C143.662 34.3264 143.869 34.2915 144.056 34.2218C144.243 34.1521 144.409 34.0513 144.554 33.9193C144.7 33.7874 144.821 33.6266 144.919 33.4371C145.017 33.2477 145.088 33.0357 145.134 32.8014L147.309 33.2053C147.228 33.6662 147.078 34.0786 146.858 34.4423C146.639 34.8061 146.36 35.1171 146.022 35.3755C145.685 35.6338 145.295 35.8309 144.855 35.9668C144.414 36.1027 143.932 36.1706 143.41 36.1706ZM152.828 36.1706C151.952 36.1706 151.194 35.9824 150.554 35.606C149.914 35.2296 149.421 34.7036 149.075 34.0279C148.729 33.3522 148.556 32.5665 148.556 31.6706C148.556 30.7676 148.729 29.9777 149.075 29.3008C149.421 28.6239 149.914 28.0973 150.554 27.7209C151.194 27.3445 151.952 27.1562 152.828 27.1562C153.706 27.1562 154.465 27.3445 155.103 27.7209C155.741 28.0973 156.234 28.6239 156.58 29.3008C156.926 29.9777 157.099 30.7676 157.099 31.6706C157.099 32.5665 156.926 33.3522 156.58 34.0279C156.234 34.7036 155.741 35.2296 155.103 35.606C154.465 35.9824 153.706 36.1706 152.828 36.1706ZM152.828 34.3264C153.245 34.3264 153.594 34.2105 153.874 33.9787C154.154 33.7469 154.364 33.43 154.505 33.0278C154.645 32.6256 154.715 32.1704 154.715 31.6622C154.715 31.1488 154.645 30.6919 154.505 30.2915C154.364 29.8911 154.154 29.5759 153.874 29.3457C153.594 29.1156 153.245 29.0005 152.828 29.0005C152.411 29.0005 152.062 29.1156 151.783 29.3457C151.503 29.5759 151.294 29.8905 151.154 30.2897C151.013 30.6889 150.943 31.1464 150.943 31.6622C150.943 32.1704 151.013 32.6256 151.154 33.0278C151.294 33.43 151.503 33.7469 151.783 33.9787C152.062 34.2105 152.411 34.3264 152.828 34.3264ZM158.731 36V27.2656H161.002V28.7866H161.096C161.254 28.2482 161.522 27.8407 161.9 27.5641C162.277 27.2874 162.711 27.1491 163.201 27.1491C163.322 27.1491 163.452 27.1559 163.591 27.1695C163.73 27.1832 163.853 27.2025 163.958 27.2273V29.3207C163.855 29.2849 163.704 29.256 163.505 29.2337C163.306 29.2115 163.119 29.2004 162.946 29.2004C162.588 29.2004 162.267 29.2778 161.983 29.4325C161.699 29.5873 161.476 29.8016 161.315 30.0754C161.155 30.3491 161.074 30.667 161.074 31.0291V36H158.731ZM168.05 36.1453C167.382 36.1453 166.779 35.9724 166.24 35.6265C165.7 35.2806 165.275 34.7733 164.962 34.1047C164.65 33.436 164.493 32.6171 164.493 31.6478C164.493 30.6528 164.655 29.8223 164.977 29.1562C165.299 28.4902 165.729 27.9904 166.266 27.6567C166.804 27.3231 167.394 27.1562 168.036 27.1562C168.531 27.1562 168.943 27.2395 169.272 27.4059C169.601 27.5723 169.867 27.7775 170.069 28.0215C170.271 28.2655 170.423 28.5036 170.525 28.7358H170.601V24.3594H172.944V36H170.639V34.602H170.525C170.418 34.8366 170.261 35.0722 170.055 35.3088C169.849 35.5453 169.583 35.7439 169.257 35.9045C168.93 36.065 168.528 36.1453 168.05 36.1453ZM168.771 34.2673C169.17 34.2673 169.51 34.1575 169.79 33.9379C170.07 33.7183 170.284 33.4118 170.43 33.0183C170.577 32.6247 170.65 32.1655 170.65 31.6406C170.65 31.1101 170.578 30.6504 170.432 30.2614C170.287 29.8725 170.074 29.5707 169.793 29.3561C169.513 29.1416 169.172 29.0343 168.771 29.0343C168.362 29.0343 168.019 29.1451 167.74 29.3669C167.462 29.5887 167.252 29.8952 167.11 30.2866C166.969 30.6779 166.898 31.1293 166.898 31.6406C166.898 32.1516 166.969 32.6051 167.112 33.0012C167.255 33.3974 167.466 33.7074 167.746 33.9314C168.025 34.1553 168.367 34.2673 168.771 34.2673ZM182.64 36.1706C181.764 36.1706 181.006 35.9824 180.366 35.606C179.726 35.2296 179.233 34.7036 178.887 34.0279C178.541 33.3522 178.368 32.5665 178.368 31.6706C178.368 30.7676 178.541 29.9777 178.887 29.3008C179.233 28.6239 179.726 28.0973 180.366 27.7209C181.006 27.3445 181.764 27.1562 182.64 27.1562C183.519 27.1562 184.277 27.3445 184.916 27.7209C185.554 28.0973 186.046 28.6239 186.392 29.3008C186.738 29.9777 186.911 30.7676 186.911 31.6706C186.911 32.5665 186.738 33.3522 186.392 34.0279C186.046 34.7036 185.554 35.2296 184.916 35.606C184.277 35.9824 183.519 36.1706 182.64 36.1706ZM182.64 34.3264C183.057 34.3264 183.406 34.2105 183.686 33.9787C183.967 33.7469 184.177 33.43 184.317 33.0278C184.457 32.6256 184.527 32.1704 184.527 31.6622C184.527 31.1488 184.457 30.6919 184.317 30.2915C184.177 29.8911 183.967 29.5759 183.686 29.3457C183.406 29.1156 183.057 29.0005 182.64 29.0005C182.223 29.0005 181.875 29.1156 181.595 29.3457C181.316 29.5759 181.106 29.8905 180.966 30.2897C180.826 30.6889 180.756 31.1464 180.756 31.6622C180.756 32.1704 180.826 32.6256 180.966 33.0278C181.106 33.43 181.316 33.7469 181.595 33.9787C181.875 34.2105 182.223 34.3264 182.64 34.3264ZM190.887 30.9428V36H188.544V27.2656H190.756L190.793 29.4461H190.653C190.882 28.7176 191.23 28.1538 191.697 27.7548C192.164 27.3558 192.766 27.1562 193.503 27.1562C194.109 27.1562 194.636 27.2879 195.086 27.5512C195.536 27.8145 195.885 28.1917 196.134 28.6829C196.383 29.1741 196.507 29.7614 196.507 30.4447V36H194.164V30.853C194.164 30.3105 194.024 29.885 193.744 29.5765C193.465 29.268 193.078 29.1138 192.584 29.1138C192.254 29.1138 191.961 29.186 191.705 29.3303C191.449 29.4746 191.249 29.6826 191.104 29.9542C190.959 30.2258 190.887 30.5553 190.887 30.9428ZM202.348 36V24.3594H206.97C207.822 24.3594 208.533 24.4882 209.102 24.7457C209.672 25.0033 210.099 25.3567 210.383 25.8059C210.668 26.2552 210.81 26.7693 210.81 27.3483C210.81 27.8089 210.719 28.2097 210.536 28.5507C210.353 28.8917 210.105 29.1705 209.79 29.3871C209.476 29.6037 209.119 29.7575 208.718 29.8484V29.9662C209.156 29.9843 209.568 30.1086 209.956 30.3391C210.343 30.5697 210.658 30.8924 210.9 31.3073C211.142 31.7221 211.263 32.2173 211.263 32.793C211.263 33.4044 211.113 33.9523 210.812 34.4365C210.512 34.9207 210.065 35.3023 209.473 35.5814C208.88 35.8605 208.145 36 207.268 36H202.348ZM204.735 34.0378H206.794C207.495 34.0378 208.006 33.9027 208.327 33.6325C208.648 33.3623 208.808 33.0069 208.808 32.5664C208.808 32.2376 208.729 31.9465 208.57 31.6929C208.412 31.4393 208.187 31.2403 207.895 31.0958C207.604 30.9513 207.257 30.8791 206.855 30.8791H204.735V34.0378ZM204.735 29.2494H206.614C206.955 29.2494 207.26 29.1884 207.529 29.0666C207.799 28.9447 208.012 28.7706 208.167 28.5442C208.323 28.3179 208.401 28.0478 208.401 27.7339C208.401 27.3103 208.25 26.9662 207.95 26.7016C207.649 26.437 207.219 26.3047 206.661 26.3047H204.735V29.2494ZM215.223 24.3594V36H212.88V24.3594H215.223ZM221.125 36.1706C220.249 36.1706 219.491 35.9824 218.851 35.606C218.211 35.2296 217.718 34.7036 217.372 34.0279C217.026 33.3522 216.853 32.5665 216.853 31.6706C216.853 30.7676 217.026 29.9777 217.372 29.3008C217.718 28.6239 218.211 28.0973 218.851 27.7209C219.491 27.3445 220.249 27.1562 221.125 27.1562C222.003 27.1562 222.762 27.3445 223.4 27.7209C224.038 28.0973 224.53 28.6239 224.876 29.3008C225.222 29.9777 225.395 30.7676 225.395 31.6706C225.395 32.5665 225.222 33.3522 224.876 34.0279C224.53 34.7036 224.038 35.2296 223.4 35.606C222.762 35.9824 222.003 36.1706 221.125 36.1706ZM221.125 34.3264C221.542 34.3264 221.89 34.2105 222.171 33.9787C222.451 33.7469 222.661 33.43 222.801 33.0278C222.942 32.6256 223.012 32.1704 223.012 31.6622C223.012 31.1488 222.942 30.6919 222.801 30.2915C222.661 29.8911 222.451 29.5759 222.171 29.3457C221.89 29.1156 221.542 29.0005 221.125 29.0005C220.707 29.0005 220.359 29.1156 220.08 29.3457C219.8 29.5759 219.591 29.8905 219.45 30.2897C219.31 30.6889 219.24 31.1464 219.24 31.6622C219.24 32.1704 219.31 32.6256 219.45 33.0278C219.591 33.43 219.8 33.7469 220.08 33.9787C220.359 34.2105 220.707 34.3264 221.125 34.3264ZM230.933 36.1706C230.057 36.1706 229.3 35.9824 228.661 35.606C228.023 35.2296 227.53 34.7036 227.184 34.0279C226.838 33.3522 226.665 32.5665 226.665 31.6706C226.665 30.7676 226.838 29.9777 227.184 29.3008C227.53 28.6239 228.023 28.0973 228.661 27.7209C229.3 27.3445 230.057 27.1562 230.933 27.1562C231.453 27.1562 231.932 27.2236 232.369 27.3583C232.806 27.493 233.193 27.6857 233.531 27.9364C233.869 28.1871 234.147 28.4918 234.366 28.8503C234.584 29.2089 234.735 29.612 234.818 30.0597L232.64 30.4678C232.591 30.2411 232.518 30.0375 232.42 29.857C232.322 29.6765 232.203 29.5222 232.061 29.394C231.92 29.2658 231.757 29.1682 231.572 29.1011C231.388 29.0341 231.183 29.0005 230.958 29.0005C230.541 29.0005 230.191 29.1128 229.909 29.3373C229.627 29.5618 229.414 29.8737 229.269 30.2728C229.125 30.672 229.053 31.1351 229.053 31.6622C229.053 32.1817 229.125 32.6418 229.269 33.0426C229.414 33.4433 229.627 33.7575 229.909 33.985C230.191 34.2126 230.541 34.3264 230.958 34.3264C231.185 34.3264 231.392 34.2915 231.58 34.2218C231.767 34.1521 231.933 34.0513 232.078 33.9193C232.223 33.7874 232.344 33.6266 232.442 33.4371C232.54 33.2477 232.612 33.0357 232.658 32.8014L234.832 33.2053C234.752 33.6662 234.601 34.0786 234.382 34.4423C234.162 34.8061 233.884 35.1171 233.546 35.3755C233.208 35.6338 232.819 35.8309 232.378 35.9668C231.937 36.1027 231.456 36.1706 230.933 36.1706ZM238.568 33.4416V30.6236H238.923L241.78 27.2656H244.488L240.715 31.6461H240.162L238.568 33.4416ZM236.442 36V24.3594H238.785V36H236.442ZM241.894 36L239.276 32.1696L240.841 30.5065L244.656 36H241.894ZM249.269 36.1706C248.393 36.1706 247.636 35.9824 246.997 35.606C246.359 35.2296 245.866 34.7036 245.52 34.0279C245.174 33.3522 245.001 32.5665 245.001 31.6706C245.001 30.7676 245.174 29.9777 245.52 29.3008C245.866 28.6239 246.359 28.0973 246.997 27.7209C247.636 27.3445 248.393 27.1562 249.269 27.1562C249.789 27.1562 250.268 27.2236 250.705 27.3583C251.142 27.493 251.529 27.6857 251.867 27.9364C252.205 28.1871 252.483 28.4918 252.702 28.8503C252.92 29.2089 253.071 29.612 253.154 30.0597L250.976 30.4678C250.927 30.2411 250.854 30.0375 250.756 29.857C250.658 29.6765 250.539 29.5222 250.397 29.394C250.256 29.2658 250.093 29.1682 249.908 29.1011C249.724 29.0341 249.519 29.0005 249.294 29.0005C248.877 29.0005 248.527 29.1128 248.245 29.3373C247.963 29.5618 247.75 29.8737 247.605 30.2728C247.461 30.672 247.389 31.1351 247.389 31.6622C247.389 32.1817 247.461 32.6418 247.605 33.0426C247.75 33.4433 247.963 33.7575 248.245 33.985C248.527 34.2126 248.877 34.3264 249.294 34.3264C249.521 34.3264 249.728 34.2915 249.915 34.2218C250.103 34.1521 250.269 34.0513 250.414 33.9193C250.559 33.7874 250.68 33.6266 250.778 33.4371C250.876 33.2477 250.948 33.0357 250.993 32.8014L253.168 33.2053C253.088 33.6662 252.937 34.0786 252.718 34.4423C252.498 34.8061 252.22 35.1171 251.882 35.3755C251.544 35.6338 251.155 35.8309 250.714 35.9668C250.273 36.1027 249.792 36.1706 249.269 36.1706ZM257.121 30.9428V36H254.778V24.3594H257.079V29.4461H256.887C257.116 28.7176 257.464 28.1538 257.931 27.7548C258.398 27.3558 259 27.1562 259.738 27.1562C260.343 27.1562 260.871 27.2879 261.322 27.5512C261.773 27.8145 262.123 28.1917 262.372 28.6829C262.621 29.1741 262.745 29.7614 262.745 30.4447V36H260.398V30.853C260.398 30.3105 260.259 29.885 259.979 29.5765C259.699 29.268 259.312 29.1138 258.818 29.1138C258.488 29.1138 258.196 29.186 257.94 29.3303C257.684 29.4746 257.483 29.6826 257.338 29.9542C257.194 30.2258 257.121 30.5553 257.121 30.9428ZM267.18 36.1694C266.625 36.1694 266.128 36.0715 265.689 35.8759C265.25 35.6802 264.904 35.3889 264.653 35.0019C264.401 34.6149 264.275 34.1335 264.275 33.5578C264.275 33.0691 264.364 32.6614 264.543 32.3348C264.721 32.0083 264.965 31.7453 265.275 31.5459C265.584 31.3466 265.936 31.1949 266.33 31.0909C266.724 30.9868 267.137 30.9144 267.568 30.8736C268.072 30.8228 268.479 30.7749 268.789 30.73C269.099 30.6851 269.326 30.6149 269.471 30.5193C269.616 30.4237 269.688 30.2818 269.688 30.0936V30.0552C269.688 29.8059 269.635 29.595 269.529 29.4226C269.423 29.2502 269.269 29.118 269.066 29.0262C268.862 28.9344 268.612 28.8885 268.316 28.8885C268.017 28.8885 267.756 28.9339 267.532 29.0247C267.309 29.1155 267.125 29.2368 266.983 29.3885C266.84 29.5403 266.737 29.7106 266.674 29.8997L264.525 29.543C264.673 29.0342 264.922 28.6027 265.271 28.2484C265.621 27.8941 266.055 27.6234 266.573 27.4366C267.092 27.2497 267.675 27.1562 268.323 27.1562C268.792 27.1562 269.248 27.2118 269.69 27.3229C270.133 27.434 270.53 27.6078 270.882 27.8442C271.234 28.0807 271.514 28.3865 271.721 28.7616C271.928 29.1367 272.031 29.5894 272.031 30.1198V36H269.809V34.7872H269.732C269.591 35.0578 269.403 35.297 269.169 35.5047C268.935 35.7124 268.653 35.8751 268.323 35.9928C267.994 36.1105 267.613 36.1694 267.18 36.1694ZM267.84 34.5264C268.209 34.5264 268.533 34.4529 268.812 34.3061C269.092 34.1592 269.31 33.961 269.468 33.7114C269.626 33.4618 269.705 33.1839 269.705 32.8775V31.9324C269.634 31.9804 269.528 32.0254 269.389 32.0674C269.25 32.1095 269.094 32.1471 268.923 32.1803C268.752 32.2136 268.582 32.2424 268.415 32.2668C268.248 32.2912 268.1 32.3127 267.97 32.3311C267.682 32.37 267.429 32.436 267.211 32.5291C266.992 32.6222 266.823 32.7467 266.702 32.9027C266.581 33.0586 266.521 33.254 266.521 33.4889C266.521 33.715 266.578 33.9051 266.692 34.059C266.806 34.2129 266.962 34.3292 267.159 34.4081C267.357 34.4869 267.584 34.5264 267.84 34.5264ZM274.028 36V27.2656H276.371V36H274.028ZM275.199 26.1271C274.846 26.1271 274.544 26.0091 274.292 25.7732C274.04 25.5373 273.914 25.2543 273.914 24.9241C273.914 24.5871 274.04 24.302 274.292 24.0689C274.544 23.8358 274.846 23.7192 275.199 23.7192C275.553 23.7192 275.857 23.8356 276.109 24.0684C276.361 24.3013 276.487 24.5864 276.487 24.9238C276.487 25.2545 276.361 25.5377 276.109 25.7735C275.857 26.0092 275.553 26.1271 275.199 26.1271ZM280.707 30.9428V36H278.364V27.2656H280.576L280.614 29.4461H280.473C280.702 28.7176 281.05 28.1538 281.517 27.7548C281.984 27.3558 282.586 27.1562 283.324 27.1562C283.929 27.1562 284.457 27.2879 284.906 27.5512C285.356 27.8145 285.705 28.1917 285.954 28.6829C286.203 29.1741 286.327 29.7614 286.327 30.4447V36H283.984V30.853C283.984 30.3105 283.845 29.885 283.565 29.5765C283.285 29.268 282.898 29.1138 282.404 29.1138C282.074 29.1138 281.782 29.186 281.526 29.3303C281.27 29.4746 281.069 29.6826 280.924 29.9542C280.779 30.2258 280.707 30.5553 280.707 30.9428Z" fill="white"/>
<defs>
<filter id="filter0_dd_73_82" x="0" y="0" width="382" height="80" filterUnits="userSpaceOnUse" color-interpolation-filters="sRGB">
<feFlood flood-opacity="0" result="BackgroundImageFix"/>
<feColorMatrix in="SourceAlpha" type="matrix" values="0 0 0 0 0 0 0 0 0 0 0 0 0 0 0 0 0 0 127 0" result="hardAlpha"/>
<feMorphology radius="4" operator="erode" in="SourceAlpha" result="effect1_dropShadow_73_82"/>
<feOffset dy="4"/>
<feGaussianBlur stdDeviation="3"/>
<feComposite in2="hardAlpha" operator="out"/>
<feColorMatrix type="matrix" values="0 0 0 0 0.772549 0 0 0 0 0.603922 0 0 0 0 1 0 0 0 0.2 0"/>
<feBlend mode="normal" in2="BackgroundImageFix" result="effect1_dropShadow_73_82"/>
<feColorMatrix in="SourceAlpha" type="matrix" values="0 0 0 0 0 0 0 0 0 0 0 0 0 0 0 0 0 0 127 0" result="hardAlpha"/>
<feMorphology radius="3" operator="erode" in="SourceAlpha" result="effect2_dropShadow_73_82"/>
<feOffset dy="10"/>
<feGaussianBlur stdDeviation="7.5"/>
<feComposite in2="hardAlpha" operator="out"/>
<feColorMatrix type="matrix" values="0 0 0 0 0.772549 0 0 0 0 0.603922 0 0 0 0 1 0 0 0 0.2 0"/>
<feBlend mode="normal" in2="effect1_dropShadow_73_82" result="effect2_dropShadow_73_82"/>
<feBlend mode="normal" in="SourceGraphic" in2="effect2_dropShadow_73_82" result="shape"/>
</filter>
</defs>
</svg>
