<svg width="32" height="32" viewBox="0 0 32 32" fill="none" xmlns="http://www.w3.org/2000/svg">
<g style="mix-blend-mode:difference">
<rect width="32" height="32" rx="16" fill="#262626"/>
<path d="M16.0001 19.2083C16.7292 19.2083 17.349 18.9531 17.8595 18.4427C18.3699 17.9323 18.6251 17.3125 18.6251 16.5833C18.6251 15.8542 18.3699 15.2344 17.8595 14.724C17.349 14.2135 16.7292 13.9583 16.0001 13.9583C15.2709 13.9583 14.6511 14.2135 14.1407 14.724C13.6303 15.2344 13.3751 15.8542 13.3751 16.5833C13.3751 17.3125 13.6303 17.9323 14.1407 18.4427C14.6511 18.9531 15.2709 19.2083 16.0001 19.2083ZM16.0001 18.0417C15.5917 18.0417 15.2466 17.9007 14.9647 17.6188C14.6827 17.3368 14.5417 16.9917 14.5417 16.5833C14.5417 16.175 14.6827 15.8299 14.9647 15.5479C15.2466 15.266 15.5917 15.125 16.0001 15.125C16.4084 15.125 16.7536 15.266 17.0355 15.5479C17.3174 15.8299 17.4584 16.175 17.4584 16.5833C17.4584 16.9917 17.3174 17.3368 17.0355 17.6188C16.7536 17.9007 16.4084 18.0417 16.0001 18.0417ZM11.3334 21.25C11.0126 21.25 10.7379 21.1358 10.5095 20.9073C10.281 20.6788 10.1667 20.4042 10.1667 20.0833V13.0833C10.1667 12.7625 10.281 12.4878 10.5095 12.2594C10.7379 12.0309 11.0126 11.9167 11.3334 11.9167H13.1709L14.2501 10.75H17.7501L18.8292 11.9167H20.6667C20.9876 11.9167 21.2622 12.0309 21.4907 12.2594C21.7192 12.4878 21.8334 12.7625 21.8334 13.0833V20.0833C21.8334 20.4042 21.7192 20.6788 21.4907 20.9073C21.2622 21.1358 20.9876 21.25 20.6667 21.25H11.3334ZM11.3334 20.0833H20.6667V13.0833H18.3042L17.2397 11.9167H14.7605L13.6959 13.0833H11.3334V20.0833Z" fill="white"/>
</g>
</svg>
