<svg width="185" height="22" viewBox="0 0 185 22" fill="none" xmlns="http://www.w3.org/2000/svg">
<mask id="path-1-inside-1_73_114" fill="white">
<path d="M0 0H83V22H0V0Z"/>
</mask>
<path d="M83 22V20H0V22V24H83V22Z" fill="#C59AFF" mask="url(#path-1-inside-1_73_114)"/>
<path d="M0.758523 12V3.27273H6.53693V4.79403H2.60369V6.87358H6.15341V8.39489H2.60369V12H0.758523ZM16.9979 7.63636C16.9979 8.58807 16.8175 9.39773 16.4567 10.0653C16.0988 10.733 15.6102 11.2429 14.9908 11.5952C14.3744 11.9446 13.6812 12.1193 12.9113 12.1193C12.1357 12.1193 11.4397 11.9432 10.8232 11.5909C10.2067 11.2386 9.71953 10.7287 9.36158 10.0611C9.00362 9.39347 8.82464 8.58523 8.82464 7.63636C8.82464 6.68466 9.00362 5.875 9.36158 5.20739C9.71953 4.53977 10.2067 4.03125 10.8232 3.68182C11.4397 3.32955 12.1357 3.15341 12.9113 3.15341C13.6812 3.15341 14.3744 3.32955 14.9908 3.68182C15.6102 4.03125 16.0988 4.53977 16.4567 5.20739C16.8175 5.875 16.9979 6.68466 16.9979 7.63636ZM15.1272 7.63636C15.1272 7.01989 15.0349 6.5 14.8502 6.0767C14.6684 5.65341 14.4113 5.33239 14.0789 5.11364C13.7465 4.89489 13.3573 4.78551 12.9113 4.78551C12.4653 4.78551 12.0761 4.89489 11.7437 5.11364C11.4113 5.33239 11.1528 5.65341 10.9681 6.0767C10.7863 6.5 10.6954 7.01989 10.6954 7.63636C10.6954 8.25284 10.7863 8.77273 10.9681 9.19602C11.1528 9.61932 11.4113 9.94034 11.7437 10.1591C12.0761 10.3778 12.4653 10.4872 12.9113 10.4872C13.3573 10.4872 13.7465 10.3778 14.0789 10.1591C14.4113 9.94034 14.6684 9.61932 14.8502 9.19602C15.0349 8.77273 15.1272 8.25284 15.1272 7.63636ZM19.5648 12V3.27273H21.4099V10.4787H25.1514V12H19.5648ZM27.5734 12V3.27273H29.4185V10.4787H33.16V12H27.5734ZM43.262 7.63636C43.262 8.58807 43.0816 9.39773 42.7208 10.0653C42.3629 10.733 41.8742 11.2429 41.2549 11.5952C40.6384 11.9446 39.9452 12.1193 39.1754 12.1193C38.3998 12.1193 37.7038 11.9432 37.0873 11.5909C36.4708 11.2386 35.9836 10.7287 35.6256 10.0611C35.2677 9.39347 35.0887 8.58523 35.0887 7.63636C35.0887 6.68466 35.2677 5.875 35.6256 5.20739C35.9836 4.53977 36.4708 4.03125 37.0873 3.68182C37.7038 3.32955 38.3998 3.15341 39.1754 3.15341C39.9452 3.15341 40.6384 3.32955 41.2549 3.68182C41.8742 4.03125 42.3629 4.53977 42.7208 5.20739C43.0816 5.875 43.262 6.68466 43.262 7.63636ZM41.3913 7.63636C41.3913 7.01989 41.2989 6.5 41.1143 6.0767C40.9325 5.65341 40.6754 5.33239 40.343 5.11364C40.0106 4.89489 39.6214 4.78551 39.1754 4.78551C38.7293 4.78551 38.3401 4.89489 38.0077 5.11364C37.6754 5.33239 37.4168 5.65341 37.2322 6.0767C37.0504 6.5 36.9594 7.01989 36.9594 7.63636C36.9594 8.25284 37.0504 8.77273 37.2322 9.19602C37.4168 9.61932 37.6754 9.94034 38.0077 10.1591C38.3401 10.3778 38.7293 10.4872 39.1754 10.4872C39.6214 10.4872 40.0106 10.3778 40.343 10.1591C40.6754 9.94034 40.9325 9.61932 41.1143 9.19602C41.2989 8.77273 41.3913 8.25284 41.3913 7.63636ZM47.4652 12L44.968 3.27273H46.9837L48.4283 9.33665H48.5007L50.0945 3.27273H51.8203L53.4098 9.34943H53.4865L54.9311 3.27273H56.9467L54.4496 12H52.6513L50.9893 6.29403H50.9212L49.2635 12H47.4652ZM60.9795 3.27273V12H59.1343V3.27273H60.9795ZM70.9973 3.27273V12H69.4036L65.6067 6.5071H65.5428V12H63.6976V3.27273H65.3169L69.084 8.76136H69.1607V3.27273H70.9973ZM79.5087 6.09375C79.4491 5.88636 79.3653 5.70312 79.2573 5.54403C79.1494 5.3821 79.0173 5.24574 78.861 5.13494C78.7076 5.02131 78.5315 4.93466 78.3326 4.875C78.1366 4.81534 77.9192 4.78551 77.6806 4.78551C77.2346 4.78551 76.8425 4.89631 76.5045 5.1179C76.1692 5.33949 75.9079 5.66193 75.7204 6.08523C75.5329 6.50568 75.4391 7.01989 75.4391 7.62784C75.4391 8.2358 75.5315 8.75284 75.7161 9.17898C75.9008 9.60511 76.1621 9.9304 76.5002 10.1548C76.8383 10.3764 77.2374 10.4872 77.6977 10.4872C78.1153 10.4872 78.4718 10.4134 78.7673 10.2656C79.0656 10.1151 79.2928 9.90341 79.4491 9.63068C79.6082 9.35795 79.6877 9.03551 79.6877 8.66335L80.0627 8.71875H77.8127V7.32955H81.4647V8.42898C81.4647 9.19602 81.3028 9.85511 80.9789 10.4062C80.655 10.9545 80.209 11.3778 79.6408 11.6761C79.0727 11.9716 78.4221 12.1193 77.6891 12.1193C76.871 12.1193 76.1522 11.9389 75.5329 11.5781C74.9136 11.2145 74.4306 10.6989 74.084 10.0312C73.7403 9.3608 73.5684 8.56534 73.5684 7.64489C73.5684 6.9375 73.6707 6.30682 73.8752 5.75284C74.0826 5.19602 74.3724 4.72443 74.7445 4.33807C75.1167 3.9517 75.5499 3.65767 76.0442 3.45597C76.5386 3.25426 77.0741 3.15341 77.6508 3.15341C78.1451 3.15341 78.6053 3.22585 79.0315 3.37074C79.4576 3.51278 79.8354 3.71449 80.165 3.97585C80.4974 4.23722 80.7687 4.5483 80.9789 4.90909C81.1891 5.26705 81.3241 5.66193 81.3837 6.09375H79.5087Z" fill="white"/>
<rect x="91" y="9" width="4" height="4" rx="2" fill="white"/>
<path d="M103.759 15V6.27273H109.537V7.79403H105.604V9.87358H109.153V11.3949H105.604V15H103.759ZM119.998 10.6364C119.998 11.5881 119.818 12.3977 119.457 13.0653C119.099 13.733 118.61 14.2429 117.991 14.5952C117.374 14.9446 116.681 15.1193 115.911 15.1193C115.136 15.1193 114.44 14.9432 113.823 14.5909C113.207 14.2386 112.72 13.7287 112.362 13.0611C112.004 12.3935 111.825 11.5852 111.825 10.6364C111.825 9.68466 112.004 8.875 112.362 8.20739C112.72 7.53977 113.207 7.03125 113.823 6.68182C114.44 6.32955 115.136 6.15341 115.911 6.15341C116.681 6.15341 117.374 6.32955 117.991 6.68182C118.61 7.03125 119.099 7.53977 119.457 8.20739C119.818 8.875 119.998 9.68466 119.998 10.6364ZM118.127 10.6364C118.127 10.0199 118.035 9.5 117.85 9.0767C117.668 8.65341 117.411 8.33239 117.079 8.11364C116.747 7.89489 116.357 7.78551 115.911 7.78551C115.465 7.78551 115.076 7.89489 114.744 8.11364C114.411 8.33239 114.153 8.65341 113.968 9.0767C113.786 9.5 113.695 10.0199 113.695 10.6364C113.695 11.2528 113.786 11.7727 113.968 12.196C114.153 12.6193 114.411 12.9403 114.744 13.1591C115.076 13.3778 115.465 13.4872 115.911 13.4872C116.357 13.4872 116.747 13.3778 117.079 13.1591C117.411 12.9403 117.668 12.6193 117.85 12.196C118.035 11.7727 118.127 11.2528 118.127 10.6364ZM122.565 15V6.27273H126.008C126.667 6.27273 127.23 6.39062 127.695 6.62642C128.164 6.85937 128.521 7.19034 128.765 7.61932C129.012 8.04545 129.136 8.54687 129.136 9.12358C129.136 9.70312 129.011 10.2017 128.761 10.6193C128.511 11.0341 128.149 11.3523 127.674 11.5739C127.203 11.7955 126.632 11.9062 125.961 11.9062H123.656V10.4233H125.663C126.015 10.4233 126.308 10.375 126.541 10.2784C126.774 10.1818 126.947 10.0369 127.061 9.84375C127.177 9.65057 127.235 9.41051 127.235 9.12358C127.235 8.83381 127.177 8.58949 127.061 8.39062C126.947 8.19176 126.772 8.04119 126.536 7.93892C126.303 7.83381 126.009 7.78125 125.654 7.78125H124.41V15H122.565ZM127.278 11.0284L129.447 15H127.41L125.288 11.0284H127.278ZM135.106 6.27273H137.173L139.163 10.0312H139.248L141.238 6.27273H143.305L140.121 11.9148V15H138.289V11.9148L135.106 6.27273ZM153.005 10.6364C153.005 11.5881 152.825 12.3977 152.464 13.0653C152.106 13.733 151.617 14.2429 150.998 14.5952C150.381 14.9446 149.688 15.1193 148.918 15.1193C148.143 15.1193 147.447 14.9432 146.83 14.5909C146.214 14.2386 145.727 13.7287 145.369 13.0611C145.011 12.3935 144.832 11.5852 144.832 10.6364C144.832 9.68466 145.011 8.875 145.369 8.20739C145.727 7.53977 146.214 7.03125 146.83 6.68182C147.447 6.32955 148.143 6.15341 148.918 6.15341C149.688 6.15341 150.381 6.32955 150.998 6.68182C151.617 7.03125 152.106 7.53977 152.464 8.20739C152.825 8.875 153.005 9.68466 153.005 10.6364ZM151.134 10.6364C151.134 10.0199 151.042 9.5 150.857 9.0767C150.675 8.65341 150.418 8.33239 150.086 8.11364C149.754 7.89489 149.364 7.78551 148.918 7.78551C148.472 7.78551 148.083 7.89489 147.751 8.11364C147.418 8.33239 147.16 8.65341 146.975 9.0767C146.793 9.5 146.702 10.0199 146.702 10.6364C146.702 11.2528 146.793 11.7727 146.975 12.196C147.16 12.6193 147.418 12.9403 147.751 13.1591C148.083 13.3778 148.472 13.4872 148.918 13.4872C149.364 13.4872 149.754 13.3778 150.086 13.1591C150.418 12.9403 150.675 12.6193 150.857 12.196C151.042 11.7727 151.134 11.2528 151.134 10.6364ZM160.962 6.27273H162.808V11.9403C162.808 12.5767 162.656 13.1335 162.352 13.6108C162.05 14.0881 161.629 14.4602 161.086 14.7273C160.543 14.9915 159.911 15.1236 159.19 15.1236C158.465 15.1236 157.832 14.9915 157.289 14.7273C156.747 14.4602 156.325 14.0881 156.024 13.6108C155.722 13.1335 155.572 12.5767 155.572 11.9403V6.27273H157.417V11.7827C157.417 12.1151 157.489 12.4105 157.634 12.669C157.782 12.9276 157.989 13.1307 158.256 13.2784C158.524 13.4261 158.835 13.5 159.19 13.5C159.548 13.5 159.859 13.4261 160.123 13.2784C160.39 13.1307 160.596 12.9276 160.741 12.669C160.889 12.4105 160.962 12.1151 160.962 11.7827V6.27273Z" fill="white" fill-opacity="0.6"/>
</svg>
