<svg width="366" height="80" viewBox="0 0 366 80" fill="none" xmlns="http://www.w3.org/2000/svg">
<rect x="12" y="2" width="342" height="56" rx="12" fill="url(#paint0_linear_73_203)"/>
<g filter="url(#filter0_dd_73_203)">
<rect x="12" y="2" width="342" height="56" rx="12" fill="white" fill-opacity="0.01" shape-rendering="crispEdges"/>
</g>
<path d="M90.5438 36.1406C89.5334 36.1406 88.6519 35.9909 87.8992 35.6914C87.1466 35.3919 86.562 34.9297 86.1453 34.3047C85.7287 33.6797 85.5177 32.8802 85.5125 31.9062H88.5125C88.5334 32.2604 88.6232 32.5599 88.7821 32.8047C88.9409 33.0495 89.1649 33.2344 89.4539 33.3594C89.743 33.4844 90.0907 33.5469 90.4969 33.5469C90.8354 33.5469 91.1193 33.5052 91.3485 33.4219C91.5776 33.3385 91.7508 33.2227 91.868 33.0742C91.9852 32.9258 92.0438 32.7552 92.0438 32.5625C92.0438 32.3854 91.9878 32.2305 91.8758 32.0977C91.7638 31.9648 91.5802 31.8438 91.325 31.7344C91.0698 31.625 90.7261 31.526 90.2938 31.4375L89.1219 31.1875C88.0959 30.9688 87.2873 30.5951 86.6961 30.0664C86.105 29.5378 85.8094 28.8177 85.8094 27.9062C85.8094 27.1667 86.0099 26.5195 86.411 25.9648C86.812 25.4102 87.3654 24.9779 88.0711 24.668C88.7769 24.3581 89.5907 24.2031 90.5125 24.2031C91.4552 24.2031 92.269 24.3607 92.9539 24.6758C93.6388 24.9909 94.1675 25.4336 94.5399 26.0039C94.9123 26.5742 95.1011 27.2396 95.1063 28H92.075C92.049 27.6198 91.9097 27.3242 91.6571 27.1133C91.4045 26.9023 91.0229 26.7969 90.5125 26.7969C90.1896 26.7969 89.924 26.8346 89.7157 26.9102C89.5073 26.9857 89.3537 27.0911 89.2547 27.2266C89.1558 27.362 89.1063 27.5156 89.1063 27.6875C89.1063 27.8698 89.1597 28.0299 89.2664 28.168C89.3732 28.306 89.5425 28.4258 89.7742 28.5273C90.006 28.6289 90.3042 28.7188 90.6688 28.7969L91.6219 29C92.2625 29.1354 92.8133 29.3151 93.2742 29.5391C93.7352 29.763 94.1128 30.0247 94.4071 30.3242C94.7013 30.6237 94.9175 30.9609 95.0555 31.3359C95.1935 31.7109 95.2625 32.1198 95.2625 32.5625C95.2625 33.3281 95.0737 33.9779 94.6961 34.5117C94.3185 35.0456 93.7782 35.4505 93.075 35.7266C92.3719 36.0026 91.5282 36.1406 90.5438 36.1406ZM97.2657 36V24.3594H105.656V26.9062H100.422V28.875H105.219V31.3594H100.422V33.4531H105.625V36H97.2657ZM107.87 36V24.3594H111.308L114.081 28.9297C114.321 29.3255 114.545 29.7214 114.753 30.1172C114.961 30.513 115.163 30.9492 115.359 31.4258C115.554 31.9023 115.753 32.4583 115.956 33.0938H115.683C115.657 32.6719 115.624 32.1836 115.585 31.6289C115.546 31.0742 115.511 30.5273 115.48 29.9883C115.448 29.4492 115.433 28.9948 115.433 28.625V24.3594H118.683V36H115.245L112.659 31.75C112.368 31.2656 112.111 30.8138 111.89 30.3945C111.669 29.9753 111.455 29.5312 111.249 29.0625C111.044 28.5938 110.808 28.0521 110.542 27.4375H110.87C110.912 27.9844 110.952 28.5286 110.991 29.0703C111.03 29.612 111.062 30.1146 111.085 30.5781C111.109 31.0417 111.12 31.4323 111.12 31.75V36H107.87ZM125.467 36H122.28V33.3125H125.342C125.92 33.3125 126.414 33.2214 126.823 33.0391C127.232 32.8568 127.543 32.5378 127.756 32.082C127.97 31.6263 128.077 30.9948 128.077 30.1875C128.077 29.375 127.967 28.7409 127.748 28.2852C127.53 27.8294 127.211 27.5091 126.791 27.3242C126.372 27.1393 125.858 27.0469 125.248 27.0469H122.233V24.3594H125.42C126.618 24.3594 127.652 24.5924 128.522 25.0586C129.392 25.5247 130.064 26.1927 130.538 27.0625C131.011 27.9323 131.248 28.974 131.248 30.1875C131.248 31.3958 131.013 32.4349 130.541 33.3047C130.07 34.1745 129.402 34.8411 128.538 35.3047C127.673 35.7682 126.65 36 125.467 36ZM124.139 24.3594V36H120.983V24.3594H124.139ZM137.02 26.9062V24.3594H147.13V26.9062H143.653V36H140.497V26.9062H137.02ZM154.031 36.1562C152.974 36.1562 152.017 35.9271 151.16 35.4688C150.303 35.0104 149.625 34.3372 149.125 33.4492C148.625 32.5612 148.375 31.474 148.375 30.1875C148.375 28.8906 148.625 27.7969 149.125 26.9062C149.625 26.0156 150.303 25.3424 151.16 24.8867C152.017 24.431 152.974 24.2031 154.031 24.2031C155.089 24.2031 156.044 24.431 156.898 24.8867C157.753 25.3424 158.431 26.0156 158.934 26.9062C159.436 27.7969 159.688 28.8906 159.688 30.1875C159.688 31.4792 159.436 32.569 158.934 33.457C158.431 34.3451 157.753 35.0169 156.898 35.4727C156.044 35.9284 155.089 36.1562 154.031 36.1562ZM154.031 33.4062C154.557 33.4062 154.999 33.2826 155.355 33.0352C155.712 32.7878 155.982 32.4245 156.164 31.9453C156.346 31.4661 156.438 30.8802 156.438 30.1875C156.438 29.4896 156.346 28.8997 156.164 28.418C155.982 27.9362 155.712 27.5716 155.355 27.3242C154.999 27.0768 154.557 26.9531 154.031 26.9531C153.51 26.9531 153.072 27.0768 152.715 27.3242C152.358 27.5716 152.087 27.9362 151.902 28.418C151.717 28.8997 151.625 29.4896 151.625 30.1875C151.625 30.8802 151.717 31.4661 151.902 31.9453C152.087 32.4245 152.358 32.7878 152.715 33.0352C153.072 33.2826 153.51 33.4062 154.031 33.4062ZM165.772 36V24.3594H170.819C171.704 24.3594 172.449 24.4792 173.053 24.7188C173.657 24.9583 174.113 25.2956 174.42 25.7305C174.728 26.1654 174.881 26.6771 174.881 27.2656C174.881 27.6927 174.788 28.0833 174.6 28.4375C174.413 28.7917 174.151 29.0872 173.815 29.3242C173.479 29.5612 173.084 29.724 172.631 29.8125V29.9375C173.131 29.9531 173.586 30.0768 173.995 30.3086C174.403 30.5404 174.729 30.8607 174.971 31.2695C175.213 31.6784 175.334 32.1562 175.334 32.7031C175.334 33.3385 175.17 33.9049 174.842 34.4023C174.514 34.8997 174.045 35.2904 173.436 35.5742C172.827 35.8581 172.1 36 171.256 36H165.772ZM168.928 33.4844H170.413C170.939 33.4844 171.336 33.3828 171.604 33.1797C171.872 32.9766 172.006 32.6823 172.006 32.2969C172.006 32.0208 171.944 31.7878 171.819 31.5977C171.694 31.4076 171.515 31.263 171.284 31.1641C171.052 31.0651 170.777 31.0156 170.459 31.0156H168.928V33.4844ZM168.928 29.0625H170.225C170.501 29.0625 170.745 29.0195 170.955 28.9336C171.166 28.8477 171.332 28.7227 171.452 28.5586C171.571 28.3945 171.631 28.1927 171.631 27.9531C171.631 27.599 171.502 27.3255 171.245 27.1328C170.987 26.9401 170.663 26.8438 170.272 26.8438H168.928V29.0625ZM177.259 36V24.3594H180.416V33.4531H185.119V36H177.259ZM192.106 36.1562C191.049 36.1562 190.092 35.9271 189.235 35.4688C188.378 35.0104 187.7 34.3372 187.2 33.4492C186.7 32.5612 186.45 31.474 186.45 30.1875C186.45 28.8906 186.7 27.7969 187.2 26.9062C187.7 26.0156 188.378 25.3424 189.235 24.8867C190.092 24.431 191.049 24.2031 192.106 24.2031C193.164 24.2031 194.119 24.431 194.973 24.8867C195.828 25.3424 196.506 26.0156 197.009 26.9062C197.511 27.7969 197.763 28.8906 197.763 30.1875C197.763 31.4792 197.511 32.569 197.009 33.457C196.506 34.3451 195.828 35.0169 194.973 35.4727C194.119 35.9284 193.164 36.1562 192.106 36.1562ZM192.106 33.4062C192.632 33.4062 193.074 33.2826 193.43 33.0352C193.787 32.7878 194.057 32.4245 194.239 31.9453C194.421 31.4661 194.513 30.8802 194.513 30.1875C194.513 29.4896 194.421 28.8997 194.239 28.418C194.057 27.9362 193.787 27.5716 193.43 27.3242C193.074 27.0768 192.632 26.9531 192.106 26.9531C191.585 26.9531 191.147 27.0768 190.79 27.3242C190.433 27.5716 190.162 27.9362 189.977 28.418C189.792 28.8997 189.7 29.4896 189.7 30.1875C189.7 30.8802 189.792 31.4661 189.977 31.9453C190.162 32.4245 190.433 32.7878 190.79 33.0352C191.147 33.2826 191.585 33.4062 192.106 33.4062ZM205.266 36.1562C204.203 36.1562 203.249 35.9271 202.402 35.4688C201.556 35.0104 200.887 34.3372 200.395 33.4492C199.902 32.5612 199.656 31.474 199.656 30.1875C199.656 28.8906 199.906 27.7969 200.406 26.9062C200.906 26.0156 201.581 25.3424 202.43 24.8867C203.279 24.431 204.224 24.2031 205.266 24.2031C205.99 24.2031 206.658 24.3008 207.27 24.4961C207.882 24.6914 208.419 24.9766 208.883 25.3516C209.346 25.7266 209.721 26.1875 210.008 26.7344C210.294 27.2812 210.474 27.9062 210.547 28.6094H207.344C207.313 28.3594 207.246 28.1328 207.145 27.9297C207.043 27.7266 206.909 27.5521 206.742 27.4062C206.576 27.2604 206.376 27.1484 206.145 27.0703C205.913 26.9922 205.651 26.9531 205.359 26.9531C204.833 26.9531 204.387 27.082 204.02 27.3398C203.652 27.5977 203.375 27.9674 203.188 28.4492C203 28.931 202.906 29.5104 202.906 30.1875C202.906 30.8958 203.003 31.4896 203.195 31.9688C203.388 32.4479 203.665 32.8073 204.027 33.0469C204.389 33.2865 204.828 33.4062 205.344 33.4062C205.635 33.4062 205.896 33.3672 206.125 33.2891C206.354 33.2109 206.555 33.099 206.727 32.9531C206.898 32.8073 207.038 32.6328 207.145 32.4297C207.251 32.2266 207.323 32 207.359 31.75H210.563C210.526 32.2448 210.389 32.75 210.152 33.2656C209.915 33.7812 209.577 34.2578 209.137 34.6953C208.697 35.1328 208.155 35.4857 207.512 35.7539C206.869 36.0221 206.12 36.1562 205.266 36.1562ZM215.019 33.9609V31.2891C215.232 30.7995 215.441 30.3581 215.644 29.9648C215.847 29.5716 216.085 29.1719 216.359 28.7656C216.632 28.3594 216.975 27.888 217.386 27.3516L219.698 24.3594H223.441L218.573 30.3516L218.277 30.2266L215.019 33.9609ZM212.62 36V24.3594H215.777V26.8594L215.714 30.2109L215.777 31.75V36H212.62ZM219.941 36L217.136 31.3203L219.136 29.0078L223.659 36H219.941ZM230.248 36.1562C229.186 36.1562 228.232 35.9271 227.385 35.4688C226.539 35.0104 225.87 34.3372 225.377 33.4492C224.885 32.5612 224.639 31.474 224.639 30.1875C224.639 28.8906 224.889 27.7969 225.389 26.9062C225.889 26.0156 226.564 25.3424 227.413 24.8867C228.261 24.431 229.207 24.2031 230.248 24.2031C230.972 24.2031 231.64 24.3008 232.252 24.4961C232.864 24.6914 233.402 24.9766 233.866 25.3516C234.329 25.7266 234.704 26.1875 234.991 26.7344C235.277 27.2812 235.457 27.9062 235.53 28.6094H232.327C232.295 28.3594 232.229 28.1328 232.127 27.9297C232.026 27.7266 231.892 27.5521 231.725 27.4062C231.558 27.2604 231.359 27.1484 231.127 27.0703C230.896 26.9922 230.634 26.9531 230.342 26.9531C229.816 26.9531 229.37 27.082 229.002 27.3398C228.635 27.5977 228.358 27.9674 228.17 28.4492C227.983 28.931 227.889 29.5104 227.889 30.1875C227.889 30.8958 227.985 31.4896 228.178 31.9688C228.371 32.4479 228.648 32.8073 229.01 33.0469C229.372 33.2865 229.811 33.4062 230.327 33.4062C230.618 33.4062 230.879 33.3672 231.108 33.2891C231.337 33.2109 231.538 33.099 231.709 32.9531C231.881 32.8073 232.021 32.6328 232.127 32.4297C232.234 32.2266 232.306 32 232.342 31.75H235.545C235.509 32.2448 235.372 32.75 235.135 33.2656C234.898 33.7812 234.56 34.2578 234.12 34.6953C233.679 35.1328 233.138 35.4857 232.495 35.7539C231.851 36.0221 231.103 36.1562 230.248 36.1562ZM237.603 36V24.3594H240.759V28.7812H244.947V24.3594H248.103V36H244.947V31.3281H240.759V36H237.603ZM250.013 36L253.786 24.3594H258.098L262.013 36H258.434L257.083 31.4844C256.791 30.5052 256.518 29.4883 256.263 28.4336C256.007 27.3789 255.765 26.3307 255.536 25.2891H256.255C256.036 26.3307 255.815 27.3789 255.591 28.4336C255.367 29.4883 255.114 30.5052 254.833 31.4844L253.544 36H250.013ZM252.809 33.7656V31.4062H259.216V33.7656H252.809ZM267.078 24.3594V36H263.922V24.3594H267.078ZM269.378 36V24.3594H272.816L275.589 28.9297C275.829 29.3255 276.053 29.7214 276.261 30.1172C276.469 30.513 276.671 30.9492 276.866 31.4258C277.062 31.9023 277.261 32.4583 277.464 33.0938H277.191C277.165 32.6719 277.132 32.1836 277.093 31.6289C277.054 31.0742 277.019 30.5273 276.988 29.9883C276.956 29.4492 276.941 28.9948 276.941 28.625V24.3594H280.191V36H276.753L274.167 31.75C273.876 31.2656 273.619 30.8138 273.398 30.3945C273.176 29.9753 272.963 29.5312 272.757 29.0625C272.551 28.5938 272.316 28.0521 272.05 27.4375H272.378C272.42 27.9844 272.46 28.5286 272.499 29.0703C272.538 29.612 272.57 30.1146 272.593 30.5781C272.616 31.0417 272.628 31.4323 272.628 31.75V36H269.378Z" fill="black"/>
<defs>
<filter id="filter0_dd_73_203" x="0" y="0" width="366" height="80" filterUnits="userSpaceOnUse" color-interpolation-filters="sRGB">
<feFlood flood-opacity="0" result="BackgroundImageFix"/>
<feColorMatrix in="SourceAlpha" type="matrix" values="0 0 0 0 0 0 0 0 0 0 0 0 0 0 0 0 0 0 127 0" result="hardAlpha"/>
<feMorphology radius="4" operator="erode" in="SourceAlpha" result="effect1_dropShadow_73_203"/>
<feOffset dy="4"/>
<feGaussianBlur stdDeviation="3"/>
<feComposite in2="hardAlpha" operator="out"/>
<feColorMatrix type="matrix" values="0 0 0 0 0.772549 0 0 0 0 0.603922 0 0 0 0 1 0 0 0 0.2 0"/>
<feBlend mode="normal" in2="BackgroundImageFix" result="effect1_dropShadow_73_203"/>
<feColorMatrix in="SourceAlpha" type="matrix" values="0 0 0 0 0 0 0 0 0 0 0 0 0 0 0 0 0 0 127 0" result="hardAlpha"/>
<feMorphology radius="3" operator="erode" in="SourceAlpha" result="effect2_dropShadow_73_203"/>
<feOffset dy="10"/>
<feGaussianBlur stdDeviation="7.5"/>
<feComposite in2="hardAlpha" operator="out"/>
<feColorMatrix type="matrix" values="0 0 0 0 0.772549 0 0 0 0 0.603922 0 0 0 0 1 0 0 0 0.2 0"/>
<feBlend mode="normal" in2="effect1_dropShadow_73_203" result="effect2_dropShadow_73_203"/>
<feBlend mode="normal" in="SourceGraphic" in2="effect2_dropShadow_73_203" result="shape"/>
</filter>
<linearGradient id="paint0_linear_73_203" x1="174.07" y1="-24.5378" x2="191.93" y2="84.5378" gradientUnits="userSpaceOnUse">
<stop stop-color="#C59AFF"/>
<stop offset="1" stop-color="#9742FD"/>
</linearGradient>
</defs>
</svg>
