<svg width="47" height="37" viewBox="0 0 47 37" fill="none" xmlns="http://www.w3.org/2000/svg">
<g opacity="0.6">
<path d="M22.6 11.5384L28.8885 7.49996L22.6 3.46154V11.5384ZM19.1577 14.9999C18.6526 14.9999 18.2251 14.8249 17.8751 14.4749C17.5251 14.1249 17.3501 13.6974 17.3501 13.1922V1.80768C17.3501 1.30255 17.5251 0.874992 17.8751 0.524995C18.2251 0.174998 18.6526 0 19.1577 0H30.5423C31.0474 0 31.475 0.174998 31.825 0.524995C32.175 0.874992 32.35 1.30255 32.35 1.80768V13.1922C32.35 13.6974 32.175 14.1249 31.825 14.4749C31.475 14.8249 31.0474 14.9999 30.5423 14.9999H19.1577ZM19.1577 13.5H30.5423C30.6192 13.5 30.6898 13.4679 30.7539 13.4038C30.818 13.3397 30.85 13.2692 30.85 13.1922V1.80768C30.85 1.73075 30.818 1.66023 30.7539 1.59612C30.6898 1.53202 30.6192 1.49996 30.5423 1.49996H19.1577C19.0808 1.49996 19.0103 1.53202 18.9462 1.59612C18.8821 1.66023 18.85 1.73075 18.85 1.80768V13.1922C18.85 13.2692 18.8821 13.3397 18.9462 13.4038C19.0103 13.4679 19.0808 13.5 19.1577 13.5ZM15.6578 18.4999C15.1527 18.4999 14.7251 18.3249 14.3751 17.9749C14.0251 17.6249 13.8501 17.1973 13.8501 16.6922V3.80768H15.3501V16.6922C15.3501 16.7691 15.3821 16.8397 15.4462 16.9038C15.5103 16.9679 15.5808 16.9999 15.6578 16.9999H28.5423V18.4999H15.6578ZM18.85 1.49996C18.85 1.49996 18.85 1.52881 18.85 1.58651C18.85 1.6442 18.85 1.71793 18.85 1.80768V13.1922C18.85 13.282 18.85 13.3557 18.85 13.4134C18.85 13.4711 18.85 13.5 18.85 13.5C18.85 13.5 18.85 13.4711 18.85 13.4134C18.85 13.3557 18.85 13.282 18.85 13.1922V1.80768C18.85 1.71793 18.85 1.6442 18.85 1.58651C18.85 1.52881 18.85 1.49996 18.85 1.49996Z" fill="#C59AFF"/>
<path d="M0.90975 32.9999V25.7245H2.40178V31.7629H5.53888V32.9999H0.90975ZM8.55608 25.7245V32.9999H7.06405V25.7245H8.55608ZM10.3717 32.9999V25.7245H13.2609C13.7934 25.7245 14.2375 25.805 14.5934 25.9659C14.9493 26.1269 15.2162 26.3478 15.394 26.6286C15.5718 26.9094 15.6608 27.2307 15.6608 27.5925C15.6608 27.8804 15.6037 28.1309 15.4895 28.3441C15.3753 28.5572 15.2199 28.7314 15.0235 28.8668C14.827 29.0022 14.6036 29.0983 14.3533 29.1551V29.2288C14.6269 29.24 14.8847 29.3177 15.1268 29.4618C15.3688 29.6059 15.5655 29.8076 15.7169 30.0669C15.8683 30.3262 15.944 30.6357 15.944 30.9955C15.944 31.3776 15.85 31.72 15.6622 32.0227C15.4743 32.3253 15.1952 32.5638 14.8248 32.7383C14.4544 32.9127 13.9951 32.9999 13.4468 32.9999H10.3717ZM11.8637 31.7735H13.1508C13.5889 31.7735 13.9082 31.689 14.1088 31.5202C14.3093 31.3513 14.4096 31.1292 14.4096 30.8539C14.4096 30.6484 14.3601 30.4664 14.261 30.3079C14.1619 30.1494 14.0212 30.025 13.8389 29.9347C13.6567 29.8444 13.44 29.7993 13.1891 29.7993H11.8637V31.7735ZM11.8637 28.7807H13.0381C13.251 28.7807 13.4418 28.7426 13.6103 28.6665C13.7788 28.5903 13.9117 28.4815 14.0091 28.34C14.1064 28.1985 14.1551 28.0297 14.1551 27.8336C14.1551 27.5688 14.061 27.3537 13.8729 27.1884C13.6848 27.023 13.4163 26.9403 13.0674 26.9403H11.8637V28.7807ZM17.4879 32.9999V25.7245H20.3262C20.8785 25.7245 21.3483 25.8222 21.7357 26.0177C22.123 26.2131 22.4185 26.4884 22.6223 26.8437C22.8261 27.1989 22.9279 27.615 22.9279 28.0919C22.9279 28.5723 22.8247 28.9855 22.6183 29.3316C22.4119 29.6777 22.1123 29.943 21.7196 30.1276C21.3269 30.3121 20.8509 30.4044 20.2915 30.4044H18.3693V29.1968H20.0551C20.3583 29.1968 20.6083 29.1552 20.805 29.0719C21.0017 28.9886 21.1485 28.8651 21.2454 28.7015C21.3423 28.5379 21.3907 28.3346 21.3907 28.0919C21.3907 27.8461 21.3423 27.639 21.2454 27.4706C21.1485 27.3023 21.0013 27.174 20.8039 27.086C20.6064 26.9979 20.3553 26.9539 20.0506 26.9539H18.9799V32.9999H17.4879ZM21.5357 32.9999L19.7674 29.6892H21.3819L23.1901 32.9999H21.5357ZM24.1359 32.9999L26.6246 25.7245H28.5743L31.1261 32.9999H29.4692L28.3033 29.4904C28.1615 29.0371 28.0187 28.5408 27.8749 28.0014C27.7311 27.462 27.5793 26.8742 27.4196 26.2382H27.7431C27.5884 26.8772 27.4437 27.468 27.309 28.0103C27.1742 28.5527 27.0399 29.0461 26.9061 29.4904L25.7815 32.9999H24.1359ZM25.6908 31.3114V30.1423H29.5712V31.3114H25.6908ZM32.5211 32.9999V25.7245H35.3594C35.9117 25.7245 36.3816 25.8222 36.7689 26.0177C37.1562 26.2131 37.4517 26.4884 37.6555 26.8437C37.8593 27.1989 37.9612 27.615 37.9612 28.0919C37.9612 28.5723 37.8579 28.9855 37.6515 29.3316C37.4451 29.6777 37.1456 29.943 36.7528 30.1276C36.3601 30.3121 35.8841 30.4044 35.3247 30.4044H33.4025V29.1968H35.0883C35.3915 29.1968 35.6415 29.1552 35.8382 29.0719C36.0349 28.9886 36.1817 28.8651 36.2786 28.7015C36.3755 28.5379 36.4239 28.3346 36.4239 28.0919C36.4239 27.8461 36.3755 27.639 36.2786 27.4706C36.1817 27.3023 36.0345 27.174 35.8371 27.086C35.6396 26.9979 35.3885 26.9539 35.0838 26.9539H34.0131V32.9999H32.5211ZM36.5689 32.9999L34.8006 29.6892H36.4151L38.2233 32.9999H36.5689ZM41.5704 32.9999V30.264L38.8762 25.7245H40.6228L41.8523 27.9914C41.9781 28.2199 42.0901 28.4459 42.1882 28.6693C42.2862 28.8927 42.3871 29.1604 42.4906 29.4722H42.1644C42.2644 29.1574 42.3621 28.8875 42.4574 28.6626C42.5527 28.4376 42.6602 28.2139 42.7798 27.9914L43.9701 25.7245H45.7092L43.0572 30.264V32.9999H41.5704Z" fill="#C59AFF"/>
</g>
</svg>
