<svg width="45" height="39" viewBox="0 0 45 39" fill="none" xmlns="http://www.w3.org/2000/svg">
<path d="M21.0801 15H23.0801V11H27.0801V9H23.0801V5H21.0801V9H17.0801V11H21.0801V15ZM22.0801 20C20.6967 20 19.3967 19.7375 18.1801 19.2125C16.9634 18.6875 15.9051 17.975 15.0051 17.075C14.1051 16.175 13.3926 15.1167 12.8676 13.9C12.3426 12.6833 12.0801 11.3833 12.0801 10C12.0801 8.61667 12.3426 7.31667 12.8676 6.1C13.3926 4.88333 14.1051 3.825 15.0051 2.925C15.9051 2.025 16.9634 1.3125 18.1801 0.7875C19.3967 0.2625 20.6967 0 22.0801 0C23.4634 0 24.7634 0.2625 25.9801 0.7875C27.1967 1.3125 28.2551 2.025 29.1551 2.925C30.0551 3.825 30.7676 4.88333 31.2926 6.1C31.8176 7.31667 32.0801 8.61667 32.0801 10C32.0801 11.3833 31.8176 12.6833 31.2926 13.9C30.7676 15.1167 30.0551 16.175 29.1551 17.075C28.2551 17.975 27.1967 18.6875 25.9801 19.2125C24.7634 19.7375 23.4634 20 22.0801 20ZM22.0801 18C24.3134 18 26.2051 17.225 27.7551 15.675C29.3051 14.125 30.0801 12.2333 30.0801 10C30.0801 7.76667 29.3051 5.875 27.7551 4.325C26.2051 2.775 24.3134 2 22.0801 2C19.8467 2 17.9551 2.775 16.4051 4.325C14.8551 5.875 14.0801 7.76667 14.0801 10C14.0801 12.2333 14.8551 14.125 16.4051 15.675C17.9551 17.225 19.8467 18 22.0801 18Z" fill="#C59AFF" fill-opacity="0.6"/>
<path d="M3.65966 35.1014C3.05862 35.1014 2.53264 34.9904 2.08173 34.7684C1.63081 34.5464 1.2807 34.2362 1.03138 33.8376C0.782065 33.4391 0.657406 32.9759 0.657406 32.4479V27.7246H2.14944V32.3246C2.14944 32.6079 2.21225 32.859 2.33786 33.0781C2.46348 33.2972 2.63919 33.4695 2.865 33.5949C3.09081 33.7204 3.3557 33.7832 3.65966 33.7832C3.96539 33.7832 4.23122 33.7204 4.45716 33.5949C4.6831 33.4695 4.8585 33.2972 4.98337 33.0781C5.10824 32.859 5.17067 32.6079 5.17067 32.3246V27.7246H6.6627V32.4479C6.6627 32.9759 6.5376 33.4391 6.28741 33.8376C6.03721 34.2362 5.68697 34.5464 5.23667 34.7684C4.78638 34.9904 4.26071 35.1014 3.65966 35.1014ZM8.47674 35V27.7246H11.315C11.8674 27.7246 12.3372 27.8297 12.7245 28.0399C13.1118 28.2502 13.4074 28.54 13.6111 28.9094C13.8149 29.2788 13.9168 29.7028 13.9168 30.1815C13.9168 30.6619 13.8136 31.0853 13.6072 31.4518C13.4008 31.8183 13.1012 32.1053 12.7085 32.3128C12.3158 32.5202 11.8398 32.6239 11.2804 32.6239H9.45703V31.4209H11.0439C11.3472 31.4209 11.5975 31.3682 11.795 31.2627C11.9925 31.1572 12.1392 31.0113 12.2354 30.8249C12.3315 30.6384 12.3796 30.424 12.3796 30.1815C12.3796 29.9354 12.3315 29.7204 12.2354 29.5363C12.1392 29.3523 11.9921 29.2092 11.7939 29.1072C11.5957 29.0051 11.3442 28.954 11.0394 28.954H9.96877V35H8.47674ZM15.4562 35V27.7246H16.9483V33.7631H20.0854V35H15.4562ZM24.5244 35.0977C23.8816 35.0977 23.3036 34.9511 22.7906 34.6579C22.2776 34.3647 21.8723 33.9398 21.5748 33.3833C21.2773 32.8268 21.1285 32.1548 21.1285 31.3672C21.1285 30.5746 21.2773 29.8996 21.5748 29.3422C21.8723 28.7848 22.2776 28.3596 22.7906 28.0666C23.3036 27.7735 23.8816 27.627 24.5244 27.627C25.1673 27.627 25.7444 27.7735 26.2558 28.0666C26.7672 28.3596 27.1717 28.7848 27.4693 29.3422C27.767 29.8996 27.9158 30.5746 27.9158 31.3672C27.9158 32.1565 27.767 32.8294 27.4693 33.3859C27.1717 33.9424 26.7672 34.3669 26.2558 34.6592C25.7444 34.9515 25.1673 35.0977 24.5244 35.0977ZM24.5244 33.7742C24.9011 33.7742 25.2301 33.6819 25.5115 33.4973C25.7929 33.3128 26.0119 33.0412 26.1685 32.6825C26.3251 32.3239 26.4034 31.8855 26.4034 31.3672C26.4034 30.8441 26.3251 30.4029 26.1685 30.0434C26.0119 29.6839 25.7929 29.4118 25.5115 29.2273C25.2301 29.0427 24.9011 28.9504 24.5244 28.9504C24.148 28.9504 23.8187 29.0431 23.5366 29.2284C23.2545 29.4137 23.0347 29.6861 22.8772 30.0456C22.7197 30.4051 22.641 30.8456 22.641 31.3672C22.641 31.8855 22.7197 32.3236 22.8772 32.6814C23.0347 33.0393 23.2545 33.3109 23.5366 33.4962C23.8187 33.6815 24.148 33.7742 24.5244 33.7742ZM28.6932 35L31.1818 27.7246H33.1315L35.6833 35H34.0265L32.8606 31.4905C32.7187 31.0372 32.5759 30.5409 32.4321 30.0015C32.2883 29.4621 32.1366 28.8744 31.9769 28.2383H32.3003C32.1456 28.8774 32.0009 29.4681 31.8662 30.0105C31.7315 30.5529 31.5972 31.0462 31.4633 31.4905L30.3387 35H28.6932ZM30.2481 33.3115V32.1424H34.1284V33.3115H30.2481ZM39.6362 35H37.7519V33.7156H39.5671C40.0347 33.7156 40.427 33.6328 40.7439 33.4672C41.0608 33.3016 41.2995 33.0446 41.4599 32.6961C41.6203 32.3477 41.7006 31.9017 41.7006 31.3582C41.7006 30.816 41.6198 30.3717 41.4584 30.0255C41.297 29.6793 41.0591 29.4233 40.7446 29.2576C40.4302 29.0919 40.0406 29.009 39.5759 29.009H37.7181V27.7246H39.6631C40.3938 27.7246 41.0216 27.8699 41.5465 28.1605C42.0714 28.4511 42.4756 28.8678 42.7591 29.4107C43.0426 29.9536 43.1844 30.6027 43.1844 31.3582C43.1844 32.1149 43.0427 32.7654 42.7593 33.3098C42.476 33.8542 42.0693 34.272 41.5395 34.5632C41.0096 34.8544 40.3752 35 39.6362 35ZM38.5703 27.7246V35H37.0783V27.7246H38.5703Z" fill="#C59AFF" fill-opacity="0.6"/>
</svg>
