<svg width="165" height="22" viewBox="0 0 165 22" fill="none" xmlns="http://www.w3.org/2000/svg">
<path d="M0.788887 15V6.26953H6.53333V7.75386H2.57933V10.1916H6.14755V11.6506H2.57933V15H0.788887ZM12.8684 15.1172C12.097 15.1172 11.4034 14.9413 10.7878 14.5894C10.1722 14.2376 9.68585 13.7278 9.32882 13.06C8.97179 12.3922 8.79327 11.5857 8.79327 10.6406C8.79327 9.68953 8.97179 8.87955 9.32882 8.21068C9.68585 7.54181 10.1722 7.03154 10.7878 6.67986C11.4034 6.32818 12.097 6.15234 12.8684 6.15234C13.6398 6.15234 14.3323 6.32818 14.946 6.67986C15.5597 7.03154 16.0451 7.54181 16.4023 8.21068C16.7595 8.87955 16.9381 9.68953 16.9381 10.6406C16.9381 11.5878 16.7595 12.3953 16.4023 13.0631C16.0451 13.7309 15.5597 14.2402 14.946 14.591C14.3323 14.9418 13.6398 15.1172 12.8684 15.1172ZM12.8684 13.529C13.3204 13.529 13.7152 13.4183 14.0529 13.1968C14.3905 12.9753 14.6533 12.6494 14.8412 12.2191C15.0292 11.7887 15.1231 11.2626 15.1231 10.6406C15.1231 10.013 15.0292 9.48345 14.8412 9.05205C14.6533 8.62065 14.3905 8.29421 14.0529 8.07273C13.7152 7.85125 13.3204 7.74051 12.8684 7.74051C12.4166 7.74051 12.0215 7.8517 11.683 8.07408C11.3444 8.29646 11.0807 8.62335 10.8917 9.05475C10.7027 9.48615 10.6082 10.0148 10.6082 10.6406C10.6082 11.2626 10.7027 11.7883 10.8917 12.2177C11.0807 12.6472 11.3444 12.9731 11.683 13.1955C12.0215 13.4178 12.4166 13.529 12.8684 13.529ZM19.4779 15V6.26953H21.2684V13.5157H25.0329V15H19.4779ZM27.4631 15V6.26953H29.2535V13.5157H33.0181V15H27.4631ZM38.9449 15.1172C38.1735 15.1172 37.48 14.9413 36.8644 14.5894C36.2487 14.2376 35.7624 13.7278 35.4054 13.06C35.0483 12.3922 34.8698 11.5857 34.8698 10.6406C34.8698 9.68953 35.0483 8.87955 35.4054 8.21068C35.7624 7.54181 36.2487 7.03154 36.8644 6.67986C37.48 6.32818 38.1735 6.15234 38.9449 6.15234C39.7163 6.15234 40.4089 6.32818 41.0225 6.67986C41.6362 7.03154 42.1217 7.54181 42.4788 8.21068C42.836 8.87955 43.0146 9.68953 43.0146 10.6406C43.0146 11.5878 42.836 12.3953 42.4788 13.0631C42.1217 13.7309 41.6362 14.2402 41.0225 14.591C40.4089 14.9418 39.7163 15.1172 38.9449 15.1172ZM38.9449 13.529C39.3969 13.529 39.7918 13.4183 40.1294 13.1968C40.4671 12.9753 40.7299 12.6494 40.9178 12.2191C41.1057 11.7887 41.1997 11.2626 41.1997 10.6406C41.1997 10.013 41.1057 9.48345 40.9178 9.05205C40.7299 8.62065 40.4671 8.29421 40.1294 8.07273C39.7918 7.85125 39.3969 7.74051 38.9449 7.74051C38.4932 7.74051 38.0981 7.8517 37.7595 8.07408C37.421 8.29646 37.1572 8.62335 36.9682 9.05475C36.7793 9.48615 36.6848 10.0148 36.6848 10.6406C36.6848 11.2626 36.7793 11.7883 36.9682 12.2177C37.1572 12.6472 37.421 12.9731 37.7595 13.1955C38.0981 13.4178 38.4932 13.529 38.9449 13.529ZM47.1025 15L44.7584 6.26953H46.7115L47.7241 10.5618C47.8067 10.9229 47.8823 11.3079 47.9508 11.7167C48.0193 12.1255 48.0864 12.5356 48.1521 12.947C48.2177 13.3584 48.2821 13.7538 48.3453 14.1332H48.0301C48.1014 13.7538 48.1714 13.3584 48.2403 12.947C48.3091 12.5356 48.3813 12.1255 48.4569 11.7167C48.5325 11.3079 48.6137 10.9229 48.7006 10.5618L49.7678 6.26953H51.6283L52.6901 10.5618C52.7788 10.9229 52.8605 11.3079 52.9351 11.7167C53.0098 12.1255 53.0825 12.5356 53.1531 12.947C53.2237 13.3584 53.2947 13.7538 53.3659 14.1332H53.0395C53.1066 13.7538 53.1724 13.3584 53.237 12.947C53.3016 12.5356 53.3696 12.1255 53.441 11.7167C53.5123 11.3079 53.5874 10.9229 53.6661 10.5618L54.6792 6.26953H56.6377L54.2882 15H52.2465L51.0883 10.5351C50.9632 10.0386 50.8562 9.50094 50.7675 8.92206C50.6787 8.34318 50.5808 7.74897 50.4737 7.13944H50.9169C50.7973 7.7346 50.699 8.31787 50.6223 8.88925C50.5455 9.46063 50.4399 10.0092 50.3056 10.5351L49.1468 15H47.1025ZM60.7032 6.26953V15H58.9127V6.26953H60.7032ZM63.4819 15V6.26953H65.4778L68.2344 10.6891C68.3745 10.9159 68.5174 11.1615 68.6628 11.4261C68.8083 11.6906 68.9561 11.985 69.1062 12.3091C69.2562 12.6333 69.4065 12.9987 69.5571 13.4051H69.3736C69.3469 13.0798 69.322 12.7342 69.299 12.3685C69.276 12.0028 69.2572 11.6515 69.2428 11.3146C69.2283 10.9776 69.2211 10.693 69.2211 10.4605V6.26953H71.0495V15H69.0481L66.5454 10.9932C66.3608 10.691 66.19 10.3988 66.033 10.1167C65.8759 9.83463 65.7126 9.52183 65.543 9.17835C65.3735 8.83488 65.1711 8.42548 64.936 7.95017H65.1632C65.1891 8.37111 65.2135 8.77572 65.2365 9.164C65.2595 9.55228 65.278 9.90318 65.292 10.2167C65.306 10.5302 65.313 10.7873 65.313 10.9878V15H63.4819ZM77.6973 15.1172C76.882 15.1172 76.1661 14.9361 75.5495 14.5738C74.933 14.2116 74.4523 13.6961 74.1073 13.0272C73.7623 12.3583 73.5898 11.5649 73.5898 10.647C73.5898 9.70219 73.7691 8.89484 74.1278 8.22492C74.4865 7.555 74.9729 7.04209 75.5869 6.68619C76.2009 6.33029 76.8914 6.15234 77.6586 6.15234C78.1491 6.15234 78.6061 6.22334 79.0297 6.36533C79.4533 6.50733 79.8307 6.70949 80.1619 6.97184C80.4931 7.23418 80.7631 7.54438 80.9721 7.90243C81.1811 8.26047 81.3162 8.65465 81.3775 9.08497H79.5582C79.4979 8.87544 79.412 8.68783 79.3005 8.52213C79.1889 8.35643 79.0538 8.21513 78.8952 8.09821C78.7365 7.9813 78.5562 7.89246 78.3543 7.83168C78.1524 7.7709 77.9298 7.74051 77.6866 7.74051C77.2382 7.74051 76.8419 7.8523 76.4978 8.0759C76.1537 8.29949 75.8854 8.62645 75.6931 9.0568C75.5008 9.48715 75.4047 10.0109 75.4047 10.628C75.4047 11.2457 75.4997 11.7703 75.6897 12.2019C75.8798 12.6334 76.1471 12.9625 76.4916 13.1891C76.8362 13.4157 77.2423 13.529 77.71 13.529C78.1304 13.529 78.4918 13.4525 78.794 13.2994C79.0962 13.1463 79.3276 12.9291 79.488 12.6477C79.6485 12.3663 79.7287 12.0345 79.7287 11.6524L80.1038 11.7074H77.8341V10.3487H81.4641V11.4398C81.4641 12.2026 81.3024 12.8585 80.979 13.4077C80.6557 13.9569 80.2107 14.3791 79.644 14.6743C79.0774 14.9696 78.4285 15.1172 77.6973 15.1172Z" fill="white" fill-opacity="0.6"/>
<rect x="91.25" y="9" width="4" height="4" rx="2" fill="white"/>
<mask id="path-3-inside-1_73_112" fill="white">
<path d="M103.25 0H164.95V22H103.25V0Z"/>
</mask>
<path d="M164.95 22V20H103.25V22V24H164.95V22Z" fill="#C59AFF" mask="url(#path-3-inside-1_73_112)"/>
<path d="M104.039 12V3.26953H109.783V4.75386H105.829V7.19156H109.398V8.65058H105.829V12H104.039ZM116.118 12.1172C115.347 12.1172 114.653 11.9413 114.038 11.5894C113.422 11.2376 112.936 10.7278 112.579 10.06C112.222 9.39215 112.043 8.5857 112.043 7.64062C112.043 6.68953 112.222 5.87955 112.579 5.21068C112.936 4.54181 113.422 4.03154 114.038 3.67986C114.653 3.32818 115.347 3.15234 116.118 3.15234C116.89 3.15234 117.582 3.32818 118.196 3.67986C118.81 4.03154 119.295 4.54181 119.652 5.21068C120.009 5.87955 120.188 6.68953 120.188 7.64062C120.188 8.58781 120.009 9.39532 119.652 10.0631C119.295 10.7309 118.81 11.2402 118.196 11.591C117.582 11.9418 116.89 12.1172 116.118 12.1172ZM116.118 10.529C116.57 10.529 116.965 10.4183 117.303 10.1968C117.641 9.97532 117.903 9.64941 118.091 9.21906C118.279 8.78871 118.373 8.26257 118.373 7.64062C118.373 7.01298 118.279 6.48345 118.091 6.05205C117.903 5.62065 117.641 5.29421 117.303 5.07273C116.965 4.85125 116.57 4.74051 116.118 4.74051C115.667 4.74051 115.272 4.8517 114.933 5.07408C114.594 5.29646 114.331 5.62335 114.142 6.05475C113.953 6.48615 113.858 7.01477 113.858 7.64062C113.858 8.26257 113.953 8.78827 114.142 9.21771C114.331 9.64716 114.594 9.97307 114.933 10.1955C115.272 10.4178 115.667 10.529 116.118 10.529ZM122.728 12V3.26953H126.134C126.797 3.26953 127.361 3.3868 127.825 3.62133C128.29 3.85586 128.645 4.18627 128.889 4.61256C129.134 5.03885 129.256 5.53813 129.256 6.1104C129.256 6.68689 129.132 7.18279 128.884 7.5981C128.637 8.01342 128.277 8.3318 127.806 8.55324C127.335 8.77469 126.764 8.88541 126.092 8.88541H123.786V7.43635H125.809C126.172 7.43635 126.472 7.38637 126.709 7.28642C126.945 7.18646 127.121 7.0383 127.237 6.84193C127.353 6.64557 127.411 6.40173 127.411 6.1104C127.411 5.81548 127.353 5.56699 127.237 5.36492C127.121 5.16286 126.944 5.00899 126.707 4.90333C126.47 4.79767 126.169 4.74484 125.803 4.74484H124.518V12H122.728ZM127.585 12L125.463 8.02722H127.401L129.571 12H127.585ZM138.581 12V8.7169L135.347 3.26953H137.443L138.919 5.9898C139.07 6.26401 139.204 6.53518 139.322 6.80331C139.439 7.07143 139.56 7.3926 139.685 7.76681H139.293C139.413 7.38901 139.531 7.06514 139.645 6.79522C139.759 6.5253 139.888 6.25683 140.032 5.9898L141.46 3.26953H143.547L140.365 8.7169V12H138.581ZM149.143 12.1172C148.372 12.1172 147.678 11.9413 147.062 11.5894C146.447 11.2376 145.96 10.7278 145.603 10.06C145.246 9.39215 145.068 8.5857 145.068 7.64062C145.068 6.68953 145.246 5.87955 145.603 5.21068C145.96 4.54181 146.447 4.03154 147.062 3.67986C147.678 3.32818 148.372 3.15234 149.143 3.15234C149.914 3.15234 150.607 3.32818 151.221 3.67986C151.834 4.03154 152.32 4.54181 152.677 5.21068C153.034 5.87955 153.213 6.68953 153.213 7.64062C153.213 8.58781 153.034 9.39532 152.677 10.0631C152.32 10.7309 151.834 11.2402 151.221 11.591C150.607 11.9418 149.914 12.1172 149.143 12.1172ZM149.143 10.529C149.595 10.529 149.99 10.4183 150.327 10.1968C150.665 9.97532 150.928 9.64941 151.116 9.21906C151.304 8.78871 151.398 8.26257 151.398 7.64062C151.398 7.01298 151.304 6.48345 151.116 6.05205C150.928 5.62065 150.665 5.29421 150.327 5.07273C149.99 4.85125 149.595 4.74051 149.143 4.74051C148.691 4.74051 148.296 4.8517 147.958 5.07408C147.619 5.29646 147.355 5.62335 147.166 6.05475C146.977 6.48615 146.883 7.01477 146.883 7.64062C146.883 8.26257 146.977 8.78827 147.166 9.21771C147.355 9.64716 147.619 9.97307 147.958 10.1955C148.296 10.4178 148.691 10.529 149.143 10.529ZM159.355 12.1216C158.634 12.1216 158.003 11.9885 157.462 11.7221C156.921 11.4557 156.501 11.0834 156.201 10.6052C155.902 10.1269 155.753 9.57105 155.753 8.93753V3.26953H157.543V8.78952C157.543 9.12944 157.618 9.43084 157.769 9.69372C157.92 9.95661 158.131 10.1633 158.402 10.3139C158.673 10.4645 158.991 10.5398 159.355 10.5398C159.722 10.5398 160.041 10.4645 160.312 10.3139C160.583 10.1633 160.794 9.95661 160.944 9.69372C161.094 9.43084 161.168 9.12944 161.168 8.78952V3.26953H162.959V8.93753C162.959 9.57105 162.809 10.1269 162.509 10.6052C162.208 11.0834 161.788 11.4557 161.248 11.7221C160.707 11.9885 160.077 12.1216 159.355 12.1216Z" fill="white"/>
</svg>
