<svg width="37" height="38" viewBox="0 0 37 38" fill="none" xmlns="http://www.w3.org/2000/svg">
<g opacity="0.6">
<path d="M17.365 12.6653L22.6688 7.3615L21.5996 6.29229L17.365 10.5269L15.2458 8.40768L14.1766 9.47688L17.365 12.6653ZM18.415 18.9422C16.2522 18.3525 14.4615 17.0794 13.0429 15.123C11.6243 13.1666 10.915 10.9794 10.915 8.5615V2.80768L18.415 0L25.915 2.80768V8.5615C25.915 10.9794 25.2057 13.1666 23.7871 15.123C22.3685 17.0794 20.5778 18.3525 18.415 18.9422ZM18.415 17.3615C20.1483 16.8115 21.5817 15.7115 22.715 14.0615C23.8483 12.4115 24.415 10.5782 24.415 8.5615V3.8365L18.415 1.59612L12.415 3.8365V8.5615C12.415 10.5782 12.9817 12.4115 14.115 14.0615C15.2483 15.7115 16.6817 16.8115 18.415 17.3615Z" fill="#ABABAB"/>
<path d="M0.90932 33.4422V26.1668H3.74763C4.29997 26.1668 4.76979 26.272 5.1571 26.4822C5.54441 26.6924 5.83995 26.9822 6.04373 27.3516C6.2475 27.721 6.34939 28.145 6.34939 28.6237C6.34939 29.1041 6.24619 29.5275 6.03977 29.8941C5.83336 30.2606 5.53379 30.5475 5.14108 30.755C4.74837 30.9624 4.27233 31.0662 3.71296 31.0662H1.88961V29.8631H3.47652C3.77977 29.8631 4.03012 29.8104 4.22758 29.7049C4.42504 29.5995 4.57183 29.4535 4.66795 29.2671C4.76408 29.0807 4.81214 28.8662 4.81214 28.6237C4.81214 28.3777 4.76408 28.1626 4.66795 27.9786C4.57183 27.7945 4.42466 27.6515 4.22645 27.5494C4.02825 27.4473 3.77677 27.3963 3.47202 27.3963H2.40135V33.4422H0.90932ZM7.88881 33.4422V26.1668H10.7271C11.2795 26.1668 11.7493 26.2646 12.1366 26.46C12.5239 26.6554 12.8194 26.9308 13.0232 27.286C13.227 27.6413 13.3289 28.0573 13.3289 28.5342C13.3289 29.0146 13.2257 29.4279 13.0193 29.774C12.8128 30.1201 12.5133 30.3854 12.1206 30.5699C11.7279 30.7545 11.2518 30.8467 10.6924 30.8467H8.77028V29.6392H10.456C10.7593 29.6392 11.0092 29.5975 11.2059 29.5142C11.4027 29.4309 11.5494 29.3075 11.6463 29.1438C11.7432 28.9802 11.7916 28.777 11.7916 28.5342C11.7916 28.2885 11.7432 28.0814 11.6463 27.913C11.5494 27.7446 11.4023 27.6164 11.2048 27.5283C11.0074 27.4403 10.7563 27.3963 10.4515 27.3963H9.38085V33.4422H7.88881ZM11.9367 33.4422L10.1683 30.1316H11.7828L13.591 33.4422H11.9367ZM18.1533 33.5399C17.5104 33.5399 16.9325 33.3933 16.4195 33.1001C15.9065 32.8069 15.5012 32.382 15.2037 31.8255C14.9061 31.269 14.7574 30.597 14.7574 29.8094C14.7574 29.0168 14.9061 28.3419 15.2037 27.7845C15.5012 27.2271 15.9065 26.8018 16.4195 26.5088C16.9325 26.2157 17.5104 26.0692 18.1533 26.0692C18.7961 26.0692 19.3732 26.2157 19.8846 26.5088C20.396 26.8018 20.8006 27.2271 21.0982 27.7845C21.3959 28.3419 21.5447 29.0168 21.5447 29.8094C21.5447 30.5987 21.3959 31.2717 21.0982 31.8282C20.8006 32.3847 20.396 32.8091 19.8846 33.1014C19.3732 33.3937 18.7961 33.5399 18.1533 33.5399ZM18.1533 32.2164C18.53 32.2164 18.859 32.1241 19.1404 31.9396C19.4218 31.755 19.6407 31.4834 19.7973 31.1248C19.954 30.7662 20.0323 30.3277 20.0323 29.8094C20.0323 29.2864 19.954 28.8451 19.7973 28.4856C19.6407 28.1261 19.4218 27.8541 19.1404 27.6695C18.859 27.4849 18.53 27.3927 18.1533 27.3927C17.7769 27.3927 17.4476 27.4853 17.1655 27.6706C16.8833 27.8559 16.6635 28.1284 16.506 28.4879C16.3486 28.8474 16.2698 29.2879 16.2698 29.8094C16.2698 30.3277 16.3486 30.7658 16.506 31.1237C16.6635 31.4815 16.8833 31.7531 17.1655 31.9384C17.4476 32.1238 17.7769 32.2164 18.1533 32.2164ZM26.3584 33.5399C25.7155 33.5399 25.1376 33.3933 24.6246 33.1001C24.1115 32.8069 23.7063 32.382 23.4087 31.8255C23.1112 31.269 22.9625 30.597 22.9625 29.8094C22.9625 29.0168 23.1112 28.3419 23.4087 27.7845C23.7063 27.2271 24.1115 26.8018 24.6246 26.5088C25.1376 26.2157 25.7155 26.0692 26.3584 26.0692C27.0012 26.0692 27.5783 26.2157 28.0897 26.5088C28.6011 26.8018 29.0056 27.2271 29.3033 27.7845C29.601 28.3419 29.7498 29.0168 29.7498 29.8094C29.7498 30.5987 29.601 31.2717 29.3033 31.8282C29.0056 32.3847 28.6011 32.8091 28.0897 33.1014C27.5783 33.3937 27.0012 33.5399 26.3584 33.5399ZM26.3584 32.2164C26.7351 32.2164 27.0641 32.1241 27.3455 31.9396C27.6268 31.755 27.8458 31.4834 28.0024 31.1248C28.159 30.7662 28.2373 30.3277 28.2373 29.8094C28.2373 29.2864 28.159 28.8451 28.0024 28.4856C27.8458 28.1261 27.6268 27.8541 27.3455 27.6695C27.0641 27.4849 26.7351 27.3927 26.3584 27.3927C25.9819 27.3927 25.6527 27.4853 25.3705 27.6706C25.0884 27.8559 24.8686 28.1284 24.7111 28.4879C24.5536 28.8474 24.4749 29.2879 24.4749 29.8094C24.4749 30.3277 24.5536 30.7658 24.7111 31.1237C24.8686 31.4815 25.0884 31.7531 25.3705 31.9384C25.6527 32.1238 25.9819 32.2164 26.3584 32.2164ZM31.3664 33.4422V26.1668H36.1534V27.4038H32.8584V29.4352H35.8319V30.651H32.8584V33.4422H31.3664Z" fill="#ABABAB"/>
</g>
</svg>
