<svg width="203" height="36" viewBox="0 0 203 36" fill="none" xmlns="http://www.w3.org/2000/svg">
<path d="M4.46155 30L0.382811 18.3594H3.03383L4.89566 23.9746C5.11785 24.6855 5.34356 25.4665 5.57278 26.3179C5.802 27.1692 6.04317 28.0989 6.29629 29.107H5.78362C6.03112 28.0869 6.26466 27.1542 6.48424 26.3089C6.70383 25.4635 6.92071 24.6855 7.13488 23.9746L8.93421 18.3594H11.5671L7.57743 30H4.46155ZM12.9453 30V21.2656H15.2882V30H12.9453ZM14.1161 20.1271C13.7633 20.1271 13.461 20.0091 13.2092 19.7732C12.9574 19.5373 12.8316 19.2543 12.8316 18.9241C12.8316 18.5871 12.9574 18.302 13.2092 18.0689C13.461 17.8358 13.7633 17.7192 14.1161 17.7192C14.4705 17.7192 14.7738 17.8356 15.026 18.0684C15.2782 18.3013 15.4043 18.5864 15.4043 18.9238C15.4043 19.2545 15.2782 19.5377 15.026 19.7735C14.7738 20.0092 14.4705 20.1271 14.1161 20.1271ZM21.2316 30.1706C20.34 30.1706 19.5714 29.988 18.9256 29.6229C18.2799 29.2577 17.7839 28.7392 17.4377 28.0673C17.0915 27.3955 16.9184 26.599 16.9184 25.6778C16.9184 24.7792 17.0904 23.9908 17.4344 23.3127C17.7785 22.6347 18.265 22.1057 18.8941 21.7259C19.5233 21.3461 20.2632 21.1562 21.1139 21.1562C21.6843 21.1562 22.2173 21.2471 22.7128 21.4289C23.2084 21.6107 23.6432 21.8848 24.0175 22.2513C24.3917 22.6177 24.6839 23.0782 24.8942 23.6327C25.1046 24.1871 25.2097 24.8385 25.2097 25.5867V26.2444H17.88V24.77H24.068L22.9729 25.1653C22.9729 24.7105 22.9035 24.3153 22.7646 23.9797C22.6257 23.6441 22.4199 23.3837 22.1473 23.1986C21.8747 23.0135 21.5359 22.921 21.1308 22.921C20.7257 22.921 20.3821 23.0147 20.0999 23.2022C19.8177 23.3897 19.603 23.6441 19.4557 23.9653C19.3084 24.2866 19.2347 24.6518 19.2347 25.0611V26.0991C19.2347 26.6043 19.3193 27.0287 19.4884 27.3723C19.6575 27.716 19.8954 27.9741 20.202 28.1468C20.5086 28.3195 20.8642 28.4059 21.2689 28.4059C21.5423 28.4059 21.7909 28.367 22.0144 28.2891C22.238 28.2112 22.4303 28.096 22.5912 27.9433C22.7522 27.7905 22.8747 27.6023 22.9587 27.3786L25.0775 27.7705C24.9365 28.253 24.6918 28.6742 24.3436 29.0343C23.9954 29.3943 23.5591 29.6737 23.0347 29.8725C22.5103 30.0712 21.9093 30.1706 21.2316 30.1706ZM28.4154 30L25.8387 21.2656H28.2971L29.0558 24.4959C29.1848 25.073 29.3248 25.7015 29.476 26.3815C29.6272 27.0614 29.7667 27.8124 29.8944 28.6345H29.6269C29.7635 27.8292 29.9125 27.0853 30.0739 26.4027C30.2354 25.7201 30.386 25.0845 30.5258 24.4959L31.3237 21.2656H33.4819L34.2558 24.4959C34.3904 25.0802 34.5385 25.7123 34.7002 26.3922C34.8618 27.0722 35.011 27.8196 35.1475 28.6345H34.8849C35.0122 27.8244 35.1473 27.0794 35.2902 26.3994C35.4332 25.7195 35.5704 25.085 35.7017 24.4959L36.4605 21.2656H38.9526L36.359 30H33.9775L33.0092 26.6291C32.9143 26.2956 32.8199 25.924 32.726 25.5143C32.6321 25.1047 32.5408 24.6875 32.4521 24.2626C32.3634 23.8378 32.2728 23.441 32.1803 23.0723H32.5941C32.5068 23.4386 32.4175 23.8348 32.3262 24.2608C32.2349 24.6869 32.143 25.1059 32.0505 25.5179C31.958 25.93 31.8629 26.3004 31.7652 26.6291L30.7969 30H28.4154ZM47.8934 30.1706C47.0174 30.1706 46.2594 29.9824 45.6194 29.606C44.9795 29.2296 44.4865 28.7036 44.1405 28.0279C43.7945 27.3522 43.6216 26.5665 43.6216 25.6706C43.6216 24.7676 43.7945 23.9777 44.1405 23.3008C44.4865 22.6239 44.9795 22.0973 45.6194 21.7209C46.2594 21.3445 47.0174 21.1562 47.8934 21.1562C48.7719 21.1562 49.5303 21.3445 50.1686 21.7209C50.807 22.0973 51.2991 22.6239 51.6451 23.3008C51.9911 23.9777 52.1641 24.7676 52.1641 25.6706C52.1641 26.5665 51.9911 27.3522 51.6451 28.0279C51.2991 28.7036 50.807 29.2296 50.1686 29.606C49.5303 29.9824 48.7719 30.1706 47.8934 30.1706ZM47.8934 28.3264C48.3104 28.3264 48.6591 28.2105 48.9394 27.9787C49.2198 27.7469 49.43 27.43 49.5701 27.0278C49.7102 26.6256 49.7803 26.1704 49.7803 25.6622C49.7803 25.1488 49.7102 24.6919 49.5701 24.2915C49.43 23.8911 49.2198 23.5759 48.9394 23.3457C48.6591 23.1156 48.3104 23.0005 47.8934 23.0005C47.4761 23.0005 47.1277 23.1156 46.8483 23.3457C46.569 23.5759 46.3592 23.8905 46.2191 24.2897C46.079 24.6889 46.009 25.1464 46.009 25.6622C46.009 26.1704 46.079 26.6256 46.2191 27.0278C46.3592 27.43 46.569 27.7469 46.8483 27.9787C47.1277 28.2105 47.4761 28.3264 47.8934 28.3264ZM56.1397 24.9428V30H53.7969V21.2656H56.0091L56.0465 23.4461H55.906C56.1351 22.7176 56.483 22.1538 56.9499 21.7548C57.4168 21.3558 58.0189 21.1562 58.7563 21.1562C59.3617 21.1562 59.8893 21.2879 60.339 21.5512C60.7888 21.8145 61.1381 22.1917 61.3869 22.6829C61.6357 23.1741 61.7601 23.7614 61.7601 24.4447V30H59.4172V24.853C59.4172 24.3105 59.2773 23.885 58.9974 23.5765C58.7176 23.268 58.3306 23.1138 57.8366 23.1138C57.5071 23.1138 57.2144 23.186 56.9584 23.3303C56.7024 23.4746 56.502 23.6826 56.3571 23.9542C56.2122 24.2258 56.1397 24.5553 56.1397 24.9428ZM71.8714 30.1694C70.9401 30.1694 70.1292 30.0262 69.4389 29.7399C68.7486 29.4536 68.2107 29.0297 67.8251 28.4682C67.4396 27.9067 67.2347 27.2132 67.2103 26.3878H69.5311C69.5616 26.7803 69.6783 27.1079 69.8815 27.3707C70.0847 27.6334 70.356 27.8303 70.6953 27.9613C71.0347 28.0923 71.4183 28.1578 71.8461 28.1578C72.2709 28.1578 72.6416 28.0957 72.9582 27.9717C73.2748 27.8476 73.521 27.6736 73.6969 27.4497C73.8728 27.2258 73.9607 26.9672 73.9607 26.6739C73.9607 26.4058 73.882 26.182 73.7245 26.0024C73.567 25.8229 73.3391 25.6689 73.0408 25.5403C72.7424 25.4118 72.3807 25.2973 71.9556 25.1967L70.6759 24.8785C69.6906 24.6382 68.9186 24.2615 68.3598 23.7484C67.8009 23.2353 67.5215 22.5554 67.5215 21.7086C67.5215 21.0074 67.7113 20.3938 68.0908 19.8678C68.4702 19.3419 68.9895 18.9329 69.6485 18.641C70.3075 18.3491 71.0584 18.2031 71.9013 18.2031C72.7625 18.2031 73.5134 18.3505 74.154 18.6452C74.7946 18.94 75.2939 19.3485 75.6519 19.8709C76.0099 20.3933 76.1951 20.9952 76.2075 21.6766H73.9022C73.857 21.2101 73.6571 20.8487 73.3027 20.5922C72.9483 20.3358 72.474 20.2076 71.8797 20.2076C71.4753 20.2076 71.1301 20.2657 70.8439 20.3819C70.5577 20.4982 70.3399 20.6581 70.1907 20.8618C70.0414 21.0655 69.9668 21.2976 69.9668 21.5581C69.9668 21.8434 70.0537 22.0803 70.2275 22.2686C70.4014 22.4569 70.6306 22.6102 70.915 22.7286C71.1995 22.8469 71.5049 22.9451 71.8311 23.0233L72.8813 23.2803C73.371 23.3917 73.8271 23.5415 74.2497 23.7295C74.6723 23.9175 75.0422 24.1481 75.3592 24.4212C75.6762 24.6944 75.9229 25.0178 76.0993 25.3916C76.2756 25.7654 76.3638 26.1965 76.3638 26.6847C76.3638 27.3904 76.1858 28.0048 75.8297 28.5279C75.4737 29.051 74.9609 29.4553 74.2913 29.7409C73.6217 30.0266 72.8151 30.1694 71.8714 30.1694ZM81.9325 30.1706C81.0565 30.1706 80.2985 29.9824 79.6585 29.606C79.0186 29.2296 78.5256 28.7036 78.1796 28.0279C77.8336 27.3522 77.6606 26.5665 77.6606 25.6706C77.6606 24.7676 77.8336 23.9777 78.1796 23.3008C78.5256 22.6239 79.0186 22.0973 79.6585 21.7209C80.2985 21.3445 81.0565 21.1562 81.9325 21.1562C82.811 21.1562 83.5693 21.3445 84.2077 21.7209C84.846 22.0973 85.3382 22.6239 85.6842 23.3008C86.0302 23.9777 86.2032 24.7676 86.2032 25.6706C86.2032 26.5665 86.0302 27.3522 85.6842 28.0279C85.3382 28.7036 84.846 29.2296 84.2077 29.606C83.5693 29.9824 82.811 30.1706 81.9325 30.1706ZM81.9325 28.3264C82.3495 28.3264 82.6981 28.2105 82.9785 27.9787C83.2589 27.7469 83.4691 27.43 83.6092 27.0278C83.7493 26.6256 83.8193 26.1704 83.8193 25.6622C83.8193 25.1488 83.7493 24.6919 83.6092 24.2915C83.4691 23.8911 83.2589 23.5759 82.9785 23.3457C82.6981 23.1156 82.3495 23.0005 81.9325 23.0005C81.5151 23.0005 81.1668 23.1156 80.8874 23.3457C80.608 23.5759 80.3983 23.8905 80.2582 24.2897C80.1181 24.6889 80.048 25.1464 80.048 25.6622C80.048 26.1704 80.1181 26.6256 80.2582 27.0278C80.3983 27.43 80.608 27.7469 80.8874 27.9787C81.1668 28.2105 81.5151 28.3264 81.9325 28.3264ZM90.1788 18.3594V30H87.8359V18.3594H90.1788ZM94.613 30.1694C94.0581 30.1694 93.561 30.0715 93.1217 29.8759C92.6824 29.6802 92.337 29.3889 92.0855 29.0019C91.8339 28.6149 91.7081 28.1335 91.7081 27.5578C91.7081 27.0691 91.7972 26.6614 91.9755 26.3348C92.1537 26.0083 92.3976 25.7453 92.7072 25.5459C93.0169 25.3466 93.3687 25.1949 93.7627 25.0909C94.1567 24.9868 94.5695 24.9144 95.0011 24.8736C95.505 24.8228 95.9119 24.7749 96.2218 24.73C96.5316 24.6851 96.7589 24.6149 96.9037 24.5193C97.0485 24.4237 97.1209 24.2818 97.1209 24.0936V24.0552C97.1209 23.8059 97.068 23.595 96.9621 23.4226C96.8562 23.2502 96.7016 23.118 96.4983 23.0262C96.2949 22.9344 96.045 22.8885 95.7484 22.8885C95.4499 22.8885 95.1888 22.9339 94.965 23.0247C94.7413 23.1155 94.5581 23.2368 94.4154 23.3885C94.2726 23.5403 94.1699 23.7106 94.1071 23.8997L91.9581 23.543C92.1061 23.0342 92.3548 22.6027 92.704 22.2484C93.0533 21.8941 93.4873 21.6234 94.0062 21.4366C94.525 21.2497 95.1082 21.1562 95.7558 21.1562C96.2247 21.1562 96.6804 21.2118 97.1232 21.3229C97.5659 21.434 97.9632 21.6078 98.3152 21.8442C98.6672 22.0807 98.9466 22.3865 99.1535 22.7616C99.3604 23.1367 99.4638 23.5894 99.4638 24.1198V30H97.2414V28.7872H97.1645C97.0234 29.0578 96.8357 29.297 96.6015 29.5047C96.3672 29.7124 96.0855 29.8751 95.7562 29.9928C95.427 30.1105 95.0459 30.1694 94.613 30.1694ZM95.2728 28.5264C95.6418 28.5264 95.9659 28.4529 96.2451 28.3061C96.5243 28.1592 96.7429 27.961 96.9008 27.7114C97.0588 27.4618 97.1378 27.1839 97.1378 26.8775V25.9324C97.0664 25.9804 96.9611 26.0254 96.8219 26.0674C96.6826 26.1095 96.5272 26.1471 96.3558 26.1803C96.1843 26.2136 96.0151 26.2424 95.848 26.2668C95.6809 26.2912 95.5325 26.3127 95.4027 26.3311C95.1148 26.37 94.8616 26.436 94.6433 26.5291C94.425 26.6222 94.2554 26.7467 94.1346 26.9027C94.0137 27.0586 93.9533 27.254 93.9533 27.4889C93.9533 27.715 94.0104 27.9051 94.1244 28.059C94.2385 28.2129 94.3944 28.3292 94.5921 28.4081C94.7898 28.4869 95.0167 28.5264 95.2728 28.5264ZM103.804 24.9428V30H101.461V21.2656H103.673L103.711 23.4461H103.57C103.799 22.7176 104.147 22.1538 104.614 21.7548C105.081 21.3558 105.683 21.1562 106.42 21.1562C107.026 21.1562 107.553 21.2879 108.003 21.5512C108.453 21.8145 108.802 22.1917 109.051 22.6829C109.3 23.1741 109.424 23.7614 109.424 24.4447V30H107.081V24.853C107.081 24.3105 106.941 23.885 106.661 23.5765C106.382 23.268 105.995 23.1138 105.501 23.1138C105.171 23.1138 104.878 23.186 104.622 23.3303C104.366 23.4746 104.166 23.6826 104.021 23.9542C103.876 24.2258 103.804 24.5553 103.804 24.9428ZM113.863 30.1694C113.308 30.1694 112.811 30.0715 112.372 29.8759C111.932 29.6802 111.587 29.3889 111.335 29.0019C111.084 28.6149 110.958 28.1335 110.958 27.5578C110.958 27.0691 111.047 26.6614 111.225 26.3348C111.404 26.0083 111.648 25.7453 111.957 25.5459C112.267 25.3466 112.619 25.1949 113.013 25.0909C113.407 24.9868 113.82 24.9144 114.251 24.8736C114.755 24.8228 115.162 24.7749 115.472 24.73C115.782 24.6851 116.009 24.6149 116.154 24.5193C116.299 24.4237 116.371 24.2818 116.371 24.0936V24.0552C116.371 23.8059 116.318 23.595 116.212 23.4226C116.106 23.2502 115.952 23.118 115.748 23.0262C115.545 22.9344 115.295 22.8885 114.998 22.8885C114.7 22.8885 114.439 22.9339 114.215 23.0247C113.991 23.1155 113.808 23.2368 113.665 23.3885C113.523 23.5403 113.42 23.7106 113.357 23.8997L111.208 23.543C111.356 23.0342 111.605 22.6027 111.954 22.2484C112.303 21.8941 112.737 21.6234 113.256 21.4366C113.775 21.2497 114.358 21.1562 115.006 21.1562C115.475 21.1562 115.93 21.2118 116.373 21.3229C116.816 21.434 117.213 21.6078 117.565 21.8442C117.917 22.0807 118.197 22.3865 118.403 22.7616C118.61 23.1367 118.714 23.5894 118.714 24.1198V30H116.491V28.7872H116.415C116.273 29.0578 116.086 29.297 115.851 29.5047C115.617 29.7124 115.335 29.8751 115.006 29.9928C114.677 30.1105 114.296 30.1694 113.863 30.1694ZM114.523 28.5264C114.892 28.5264 115.216 28.4529 115.495 28.3061C115.774 28.1592 115.993 27.961 116.151 27.7114C116.309 27.4618 116.388 27.1839 116.388 26.8775V25.9324C116.316 25.9804 116.211 26.0254 116.072 26.0674C115.933 26.1095 115.777 26.1471 115.606 26.1803C115.434 26.2136 115.265 26.2424 115.098 26.2668C114.931 26.2912 114.782 26.3127 114.653 26.3311C114.365 26.37 114.112 26.436 113.893 26.5291C113.675 26.6222 113.505 26.7467 113.385 26.9027C113.264 27.0586 113.203 27.254 113.203 27.4889C113.203 27.715 113.26 27.9051 113.374 28.059C113.488 28.2129 113.644 28.3292 113.842 28.4081C114.04 28.4869 114.267 28.5264 114.523 28.5264ZM124.554 30V18.3594H132.348V20.3385H126.941V23.1481H131.935V25.0935H126.941V28.0209H132.363V30H124.554ZM133.551 30L136.929 24.6053L136.925 26.426L133.718 21.2656H136.249L137.04 22.6445C137.29 23.0933 137.516 23.5387 137.717 23.9808C137.919 24.4229 138.122 24.8505 138.327 25.2637H137.436C137.652 24.8533 137.858 24.4264 138.056 23.9829C138.253 23.5394 138.483 23.0933 138.744 22.6445L139.566 21.2656H142.049L138.784 26.4505V24.652L142.173 30H139.658L138.689 28.3555C138.433 27.9087 138.202 27.4645 137.995 27.0227C137.789 26.581 137.581 26.1571 137.37 25.7511H138.264C138.062 26.1571 137.864 26.581 137.67 27.0227C137.477 27.4645 137.254 27.9087 137 28.3555L136.037 30H133.551ZM143.5 33.2656V21.2656H145.804V22.7358H145.918C146.026 22.5036 146.179 22.2655 146.379 22.0215C146.579 21.7775 146.843 21.5723 147.172 21.4059C147.501 21.2395 147.913 21.1562 148.408 21.1562C149.055 21.1562 149.646 21.3231 150.181 21.6567C150.716 21.9904 151.145 22.4902 151.467 23.1562C151.789 23.8223 151.95 24.6528 151.95 25.6478C151.95 26.6171 151.794 27.436 151.482 28.1047C151.169 28.7733 150.745 29.2806 150.208 29.6265C149.672 29.9724 149.067 30.1453 148.394 30.1453C147.921 30.1453 147.52 30.065 147.191 29.9045C146.863 29.7439 146.596 29.5453 146.391 29.3088C146.186 29.0722 146.029 28.8366 145.918 28.602H145.843V33.2656H143.5ZM147.673 28.2673C148.082 28.2673 148.425 28.1553 148.702 27.9314C148.979 27.7074 149.189 27.3974 149.332 27.0012C149.475 26.6051 149.546 26.1516 149.546 25.6406C149.546 25.1293 149.475 24.6779 149.334 24.2866C149.192 23.8952 148.983 23.5887 148.706 23.3669C148.429 23.1451 148.084 23.0343 147.673 23.0343C147.271 23.0343 146.931 23.1416 146.65 23.3561C146.37 23.5707 146.157 23.8725 146.012 24.2614C145.866 24.6504 145.793 25.1101 145.793 25.6406C145.793 26.1655 145.867 26.6247 146.014 27.0183C146.16 27.4118 146.374 27.7183 146.656 27.9379C146.937 28.1575 147.276 28.2673 147.673 28.2673ZM155.929 18.3594V30H153.586V18.3594H155.929ZM161.831 30.1706C160.955 30.1706 160.197 29.9824 159.557 29.606C158.917 29.2296 158.424 28.7036 158.078 28.0279C157.732 27.3522 157.559 26.5665 157.559 25.6706C157.559 24.7676 157.732 23.9777 158.078 23.3008C158.424 22.6239 158.917 22.0973 159.557 21.7209C160.197 21.3445 160.955 21.1562 161.831 21.1562C162.709 21.1562 163.468 21.3445 164.106 21.7209C164.744 22.0973 165.237 22.6239 165.583 23.3008C165.929 23.9777 166.102 24.7676 166.102 25.6706C166.102 26.5665 165.929 27.3522 165.583 28.0279C165.237 28.7036 164.744 29.2296 164.106 29.606C163.468 29.9824 162.709 30.1706 161.831 30.1706ZM161.831 28.3264C162.248 28.3264 162.597 28.2105 162.877 27.9787C163.157 27.7469 163.368 27.43 163.508 27.0278C163.648 26.6256 163.718 26.1704 163.718 25.6622C163.718 25.1488 163.648 24.6919 163.508 24.2915C163.368 23.8911 163.157 23.5759 162.877 23.3457C162.597 23.1156 162.248 23.0005 161.831 23.0005C161.414 23.0005 161.065 23.1156 160.786 23.3457C160.506 23.5759 160.297 23.8905 160.157 24.2897C160.017 24.6889 159.946 25.1464 159.946 25.6622C159.946 26.1704 160.017 26.6256 160.157 27.0278C160.297 27.43 160.506 27.7469 160.786 27.9787C161.065 28.2105 161.414 28.3264 161.831 28.3264ZM167.734 30V21.2656H170.005V22.7866H170.099C170.257 22.2482 170.526 21.8407 170.903 21.5641C171.281 21.2874 171.714 21.1491 172.204 21.1491C172.325 21.1491 172.455 21.1559 172.594 21.1695C172.733 21.1832 172.856 21.2025 172.961 21.2273V23.3207C172.858 23.2849 172.707 23.256 172.508 23.2337C172.309 23.2115 172.122 23.2004 171.949 23.2004C171.591 23.2004 171.27 23.2778 170.986 23.4325C170.702 23.5873 170.479 23.8016 170.318 24.0754C170.158 24.3491 170.077 24.667 170.077 25.0291V30H167.734ZM177.81 30.1706C176.918 30.1706 176.149 29.988 175.504 29.6229C174.858 29.2577 174.362 28.7392 174.016 28.0673C173.67 27.3955 173.497 26.599 173.497 25.6778C173.497 24.7792 173.669 23.9908 174.013 23.3127C174.357 22.6347 174.843 22.1057 175.472 21.7259C176.101 21.3461 176.841 21.1562 177.692 21.1562C178.262 21.1562 178.795 21.2471 179.291 21.4289C179.786 21.6107 180.221 21.8848 180.596 22.2513C180.97 22.6177 181.262 23.0782 181.472 23.6327C181.683 24.1871 181.788 24.8385 181.788 25.5867V26.2444H174.458V24.77H180.646L179.551 25.1653C179.551 24.7105 179.482 24.3153 179.343 23.9797C179.204 23.6441 178.998 23.3837 178.725 23.1986C178.453 23.0135 178.114 22.921 177.709 22.921C177.304 22.921 176.96 23.0147 176.678 23.2022C176.396 23.3897 176.181 23.6441 176.034 23.9653C175.887 24.2866 175.813 24.6518 175.813 25.0611V26.0991C175.813 26.6043 175.897 27.0287 176.067 27.3723C176.236 27.716 176.474 27.9741 176.78 28.1468C177.087 28.3195 177.442 28.4059 177.847 28.4059C178.12 28.4059 178.369 28.367 178.593 28.2891C178.816 28.2112 179.008 28.096 179.169 27.9433C179.33 27.7905 179.453 27.6023 179.537 27.3786L181.656 27.7705C181.515 28.253 181.27 28.6742 180.922 29.0343C180.574 29.3943 180.137 29.6737 179.613 29.8725C179.088 30.0712 178.487 30.1706 177.81 30.1706ZM183.391 30V21.2656H185.661V22.7866H185.755C185.914 22.2482 186.182 21.8407 186.559 21.5641C186.937 21.2874 187.37 21.1491 187.86 21.1491C187.981 21.1491 188.111 21.1559 188.25 21.1695C188.389 21.1832 188.512 21.2025 188.618 21.2273V23.3207C188.514 23.2849 188.363 23.256 188.164 23.2337C187.965 23.2115 187.779 23.2004 187.605 23.2004C187.248 23.2004 186.927 23.2778 186.642 23.4325C186.358 23.5873 186.135 23.8016 185.975 24.0754C185.814 24.3491 185.733 24.667 185.733 25.0291V30H183.391Z" fill="#C59AFF"/>
<path d="M193.964 28.9583C193.67 28.9583 193.42 28.8562 193.216 28.6521C193.012 28.4479 192.91 28.1985 192.91 27.9038V20.0962C192.91 19.8015 193.012 19.5521 193.216 19.3479C193.42 19.1438 193.67 19.0417 193.964 19.0417H197.644V19.9167H193.964C193.92 19.9167 193.878 19.9354 193.841 19.9728C193.804 20.0102 193.785 20.0513 193.785 20.0962V27.9038C193.785 27.9487 193.804 27.9898 193.841 28.0272C193.878 28.0646 193.92 28.0833 193.964 28.0833H201.772C201.817 28.0833 201.858 28.0646 201.895 28.0272C201.933 27.9898 201.952 27.9487 201.952 27.9038V24.2244H202.827V27.9038C202.827 28.1985 202.724 28.4479 202.52 28.6521C202.316 28.8562 202.067 28.9583 201.772 28.9583H193.964ZM196.538 25.9452L195.923 25.3304L201.337 19.9167H199.035V19.0417H202.827V22.8333H201.952V20.5314L196.538 25.9452Z" fill="#C59AFF"/>
</svg>
