<svg width="32" height="32" viewBox="0 0 32 32" fill="none" xmlns="http://www.w3.org/2000/svg">
<rect width="32" height="32" rx="16" fill="#262626"/>
<path d="M15.7084 17.4583L19.7917 14.8333L15.7084 12.2083V17.4583ZM13.6667 19.5C13.3459 19.5 13.0713 19.3858 12.8428 19.1573C12.6143 18.9288 12.5001 18.6542 12.5001 18.3333V11.3333C12.5001 11.0125 12.6143 10.7378 12.8428 10.5094C13.0713 10.2809 13.3459 10.1667 13.6667 10.1667H20.6667C20.9876 10.1667 21.2622 10.2809 21.4907 10.5094C21.7192 10.7378 21.8334 11.0125 21.8334 11.3333V18.3333C21.8334 18.6542 21.7192 18.9288 21.4907 19.1573C21.2622 19.3858 20.9876 19.5 20.6667 19.5H13.6667ZM13.6667 18.3333H20.6667V11.3333H13.6667V18.3333ZM11.3334 21.8333C11.0126 21.8333 10.7379 21.7191 10.5095 21.4906C10.281 21.2621 10.1667 20.9875 10.1667 20.6667V12.5H11.3334V20.6667H19.5001V21.8333H11.3334ZM13.6667 11.3333V18.3333V11.3333Z" fill="white"/>
</svg>
